<?xml version="1.0" encoding="UTF-8"?>
<!-- Created with Inkscape (http://www.inkscape.org/) -->
<svg width="1287.4" height="1383.1" version="1.1" viewBox="0 0 1287.4 1383.1" xml:space="preserve" xmlns="http://www.w3.org/2000/svg"><defs><clipPath id="clipPath16"><path d="m0 1417.3h1417.3v-1417.3h-1417.3z"/></clipPath><linearGradient id="linearGradient84" x2="1" gradientTransform="matrix(-583.38 -156.28 -156.28 583.38 963.4 878)" gradientUnits="userSpaceOnUse"><stop stop-color="#a37f3d" offset="0"/><stop stop-color="#b3833e" offset=".36"/><stop stop-color="#fffcd5" offset=".48"/><stop stop-color="#fdc90a" offset=".6"/><stop stop-color="#fff200" offset="1"/></linearGradient><radialGradient id="radialGradient110" cx="0" cy="0" r="1" gradientTransform="matrix(397.14 -397.14 -397.14 -397.14 854.68 934.5)" gradientUnits="userSpaceOnUse"><stop stop-color="#fff200" offset="0"/><stop stop-color="#fdc90a" offset=".32"/><stop stop-color="#b3833e" offset=".78"/><stop stop-color="#9d6d37" offset=".85"/><stop stop-color="#9d6d37" offset="1"/></radialGradient><clipPath id="clipPath120"><path d="m0 1417.3h1417.3v-1417.3h-1417.3z"/></clipPath></defs><g transform="matrix(1.3333 0 0 -1.3333 -300.28 1639.8)"><g clip-path="url(#clipPath16)"><g transform="translate(265.2 329.05)"><path d="m0 0c-10.012 6.795-17.84 16.1-23.483 27.906-5.643 11.807-8.465 24.865-8.465 39.176 0 13.738 2.486 26.152 7.464 37.244 4.974 11.089 12.043 19.82 21.207 26.189 9.162 6.366 19.629 9.552 31.402 9.552 10.677 0 19.779-1.646 27.306-4.937 7.523-3.293 13.106-7.442 16.747-12.45 2.062-3.15 3.368-7.158 3.914-12.021 0.546-4.867 0.819-10.807 0.819-17.817h-5.461c-2.307 13.02-6.525 22.539-12.652 28.55-6.13 6.01-14.534 9.016-25.212 9.016-13.593 0-23.665-6.011-30.218-18.032-6.554-12.022-9.83-27.121-9.83-45.294 0-24.472 3.609-42.04 10.831-52.699 7.219-10.663 16.958-15.993 29.217-15.993 9.466 0 17.658 1.858 24.575 5.581v38.211c0 7.583 2.426 13.845 7.282 18.782 4.852 4.937 14.199 7.406 28.034 7.406v-5.366c-7.769 0-11.651-6.799-11.651-20.394v-38.424c-6.917-5.011-14.321-8.661-22.209-10.948-7.89-2.288-16.565-3.434-26.031-3.434-12.378 0-23.574 3.4-33.586 10.196" fill="#004ea2"/></g><g transform="translate(452.97 345.58)"><path d="m0 0c6.067 11.377 9.102 27.51 9.102 48.406 0 20.893-3.035 37.03-9.102 48.407-6.07 11.376-14.625 17.066-25.667 17.066-11.045 0-19.569-5.69-25.577-17.066-6.007-11.377-9.011-27.514-9.011-48.407 0-20.896 3.004-37.029 9.011-48.406 6.008-11.378 14.532-17.066 25.577-17.066 11.042 0 19.597 5.688 25.667 17.066m-57.069-16.852c-9.164 6.581-16.233 15.597-21.207 27.048-4.978 11.448-7.464 24.183-7.464 38.21 0 14.024 2.486 26.759 7.464 38.21 4.974 11.447 12.043 20.464 21.207 27.048 9.162 6.58 19.629 9.874 31.402 9.874 11.77 0 22.209-3.294 31.31-9.874 9.102-6.584 16.139-15.601 21.117-27.048 4.974-11.451 7.463-24.186 7.463-38.21 0-14.027-2.489-26.762-7.463-38.21-4.978-11.451-12.015-20.467-21.117-27.048-9.101-6.581-19.54-9.874-31.31-9.874-11.773 0-22.24 3.293-31.402 9.874" fill="#004ea2"/></g><g transform="translate(586.4 345.58)"><path d="m0 0c6.067 11.377 9.102 27.51 9.102 48.406 0 20.893-3.035 37.03-9.102 48.407-6.07 11.376-14.625 17.066-25.667 17.066-11.045 0-19.569-5.69-25.577-17.066-6.007-11.377-9.011-27.514-9.011-48.407 0-20.896 3.004-37.029 9.011-48.406 6.008-11.378 14.532-17.066 25.577-17.066 11.042 0 19.597 5.688 25.667 17.066m-57.069-16.852c-9.164 6.581-16.233 15.597-21.207 27.048-4.978 11.448-7.464 24.183-7.464 38.21 0 14.024 2.486 26.759 7.464 38.21 4.974 11.447 12.043 20.464 21.207 27.048 9.162 6.58 19.629 9.874 31.402 9.874 11.77 0 22.209-3.294 31.31-9.874 9.102-6.584 16.139-15.601 21.117-27.048 4.974-11.451 7.463-24.186 7.463-38.21 0-14.027-2.489-26.762-7.463-38.21-4.978-11.451-12.015-20.467-21.117-27.048-9.101-6.581-19.54-9.874-31.31-9.874-11.773 0-22.24 3.293-31.402 9.874" fill="#004ea2"/></g><g transform="translate(682.7 331.73)"><path d="m0 0c8.493 0 16.048 2.502 22.664 7.513 6.612 5.008 11.769 12.236 15.473 21.68 3.7 9.446 5.551 20.464 5.551 33.059 0 12.45-1.851 23.361-5.551 32.736-3.704 9.371-8.892 16.636-15.564 21.788-6.676 5.153-14.322 7.728-22.937 7.728h-1.456c-4.005 0-7.222-0.288-9.649-0.858l-4.005-0.644v-121.5l4.005-0.858c2.549-0.43 5.763-0.644 9.649-0.644zm-39.139 105.18c0 7.298-0.85 12.698-2.548 16.207-1.701 3.504-5.097 5.258-10.194 5.258h-1.821v6.441h49.515c24.513 0 43.171-6.118 55.976-18.354 12.803-12.236 19.205-29.446 19.205-51.627 0-14.168-2.702-26.655-8.1-37.459-5.402-10.806-13.412-19.212-24.03-25.222-10.62-6.011-23.391-9.016-38.318-9.016h-39.685z" fill="#004ea2"/></g><g transform="translate(768.62 439.71)"><path d="m0 0c-2.671 7.868-5.401 13.449-8.191 16.743-2.794 3.29-6.068 5.223-9.83 5.796v4.293l7.645 0.43c8.129 0 15.229-1.754 21.298-5.259 6.067-3.509 10.982-10.841 14.745-22.003l24.575-74.06 16.384 54.955-6.371 19.105c-2.671 7.728-5.553 13.271-8.648 16.636-3.094 3.361-6.643 5.33-10.648 5.903v4.293l7.099 0.43c8.13 0 15.229-1.791 21.298-5.366 6.068-3.58 10.983-10.878 14.746-21.896l26.031-78.138 31.129 103.25h8.738l-43.144-143.61h-7.281l-28.034 84.147-24.939-84.147h-7.282z" fill="#004ea2"/></g><g transform="translate(941.55 325.61)"><path d="m0 0c-2.307 1.644-3.944 4.434-4.915 8.372-0.973 3.934-1.456 9.623-1.456 17.065v113.77h23.665v-113.77c0-7.298 0.848-12.702 2.549-16.207 1.698-3.508 5.096-5.259 10.194-5.259h1.82v-6.44h-21.844c-4.369 0-7.708 0.822-10.013 2.469" fill="#004ea2"/></g><g transform="translate(993.43 436.92)"><path d="m0 0c0 7.299-0.851 12.698-2.549 16.207-1.701 3.505-5.097 5.259-10.194 5.259h-1.82v6.44h21.844c4.369 0 7.705-0.858 10.012-2.576 2.305-1.717 3.942-4.545 4.915-8.479 0.971-3.938 1.457-9.552 1.457-16.851v-104.11h62.803v-9.66h-86.468z" fill="#004ea2"/></g><g transform="translate(1094.1 436.92)"><path d="m0 0c0 7.299-0.851 12.698-2.549 16.207-1.701 3.505-5.097 5.259-10.194 5.259h-1.82v6.44h21.844c4.369 0 7.705-0.858 10.012-2.576 2.305-1.717 3.942-4.545 4.915-8.479 0.971-3.938 1.457-9.552 1.457-16.851v-104.11h62.803v-9.66h-86.468z" fill="#004ea2"/></g><g transform="translate(227.94 281.99)"><path d="m0 0h961.45" fill="none" stroke="#231f20" stroke-miterlimit="2.613"/></g><g transform="translate(706.82 1229.9)"><path d="m0 0 367.73-369.65-192.3-193.3c-46.352-42.094-107.9-67.757-175.43-67.757s-129.08 25.663-175.43 67.757l-192.3 193.3z" fill="#004ea2" fill-rule="evenodd"/></g><g transform="translate(706.82 924.34)"><path d="m0 0h136.59l-8e-3 0.016h78.521l5e-3 -0.016h9.319v-69.78h-0.073c-3.006-121.31-102.32-218.77-224.36-218.77-123.93 0-224.43 100.5-224.43 224.43 0 123.93 100.5 224.43 224.43 224.43 92.3 0 171.58-55.762 206.05-135.42h-84.24c-27.447 37.501-71.781 61.867-121.81 61.867-83.315 0-150.88-67.561-150.88-150.88 0-83.314 67.561-150.88 150.88-150.88 81.419 0 147.78 64.526 150.76 145.22h-150.76z" fill="#fff" fill-rule="evenodd"/></g></g><path d="m332.24 668.79h235.43l139.14 141.64 139.15-141.64h235.44l-374.58 381.3z" fill="url(#linearGradient84)"/><path d="m354.79 678.44h209.32l142.71 143.72 142.71-143.72h209.32l-352.03 355.64z" fill="url(#radialGradient110)"/><g clip-path="url(#clipPath120)"><g transform="translate(706.82 924.34)"><path d="m0 0h136.59l-8e-3 0.016h78.521l5e-3 -0.016h9.319v-69.78h-0.073c-3.006-121.31-102.32-218.77-224.36-218.77-123.93 0-224.43 100.5-224.43 224.43 0 26.538 4.624 51.994 13.084 75.626h80.783c-12.911-22.237-20.314-48.066-20.314-75.626 0-83.314 67.561-150.88 150.88-150.88 81.419 0 147.78 64.526 150.76 145.22h-150.76z" fill="#fff" fill-rule="evenodd"/></g><g transform="translate(731 523.22)"><path d="m0 0-0.279-1.743c-2.107 0.547-4.293 1.3-6.557 2.259-2.263 0.958-4.574 1.435-6.932 1.435-0.865 0-1.875-0.218-3.021-0.65-1.148-0.434-1.722-1.024-1.722-1.768 0-0.241 0.142-0.394 0.419-0.456 0.28-0.06 0.605-0.106 0.977-0.138 0.371-0.029 0.714-0.106 1.024-0.228 0.309-0.117 0.465-0.363 0.465-0.728 0.063-0.426-0.186-0.855-0.744-1.278-0.559-0.426-1.115-0.608-1.677-0.55-0.989 0.062-1.732 0.504-2.228 1.324-0.496 0.821-0.746 1.6-0.746 2.334 0 1.302 0.761 2.39 2.28 3.258 1.519 0.866 2.929 1.3 4.23 1.3 2.729 0 5.226-0.557 7.488-1.676 2.264-1.113 4.605-2.012 7.023-2.695m0.06 0.63c-7.504 2.854-13.023 5.674-16.558 8.463-3.533 2.79-5.424 5.427-5.674 7.905-0.122 0.622-0.077 1.348 0.14 2.186 0.219 0.837 0.729 1.289 1.536 1.349 0.496 0.064 0.929-0.277 1.301-1.02 0.374-0.744 0.59-1.366 0.651-1.862 0.063-0.436-0.17-0.838-0.696-1.21-0.528-0.372-0.791-0.773-0.791-1.206 0-0.622 0.712-1.524 2.14-2.701 1.426-1.179 3.193-2.447 5.3-3.812 2.11-1.363 4.387-2.698 6.837-4 2.449-1.301 4.698-2.387 6.744-3.258zm3.071-1.47c0.867 0 1.3-0.401 1.3-1.212 0-0.804-0.433-1.206-1.3-1.206-0.868 0-1.305 0.402-1.305 1.206 0 0.811 0.437 1.212 1.305 1.212m0 1.487c0.805 0 1.472-0.263 1.998-0.791 0.527-0.527 0.791-1.13 0.791-1.814 0-0.683-0.264-1.3-0.791-1.862-0.526-0.558-1.193-0.837-1.998-0.837-0.807 0-1.49 0.279-2.049 0.837-0.557 0.562-0.838 1.179-0.838 1.862 0 0.684 0.281 1.287 0.838 1.814 0.559 0.528 1.242 0.791 2.049 0.791m10.417 62.79c0.06-0.254 0.108-0.528 0.14-0.839 0.031-0.311 0.077-0.621 0.137-0.932l-0.744 0.932c-0.247 0.311-0.495 0.585-0.743 0.839h0.279zm1.859-0.19c2.294-0.31 4.542-0.977 6.744-2.001 2.202-1.022 4.171-2.401 5.907-4.139-1.301-0.557-2.525-1.242-3.674-2.044-1.149-0.81-2.156-1.771-3.026-2.884-0.06 0.059-0.122 0.106-0.183 0.137-0.061 0.034-0.123 0.08-0.187 0.14-0.619 0.868-1.27 1.751-1.953 2.652-0.682 0.898-1.364 1.783-2.047 2.649-0.371 0.807-0.682 1.676-0.93 2.608-0.247 0.929-0.464 1.891-0.651 2.882m-20.837-28.983 1.49 0.466c0.186-4.777 1.117-8.558 2.79-11.352 1.675-2.787 3.659-4.926 5.953-6.421 2.294-1.487 4.667-2.467 7.116-2.936 2.449-0.461 4.574-0.696 6.372-0.696 2.666 0.065 5.115 0.482 7.349 1.259 2.23 0.779 4.557 2.473 6.975 5.074l0.465-1.019c-2.044-2.801-4.448-4.695-7.209-5.684-2.76-0.995-5.565-1.52-8.416-1.582-2.728 0-5.487 0.449-8.279 1.348-2.789 0.899-5.286 2.28-7.489 4.143-2.201 1.864-3.967 4.237-5.301 7.122-1.333 2.882-1.938 6.308-1.816 10.278m35.72 15.033c-2.542 0-4.898 0.557-7.07 1.672 1.551 1.983 3.568 3.628 6.048 4.93 1.613-1.798 2.944-3.97 3.999-6.512-0.496-0.063-0.994-0.09-1.49-0.09zm4.743-10.248c-0.06-2.111-0.464-4.033-1.21-5.767-0.743-1.737-1.703-3.287-2.882-4.651-2.48 0.496-4.543 1.523-6.185 3.069-1.645 1.553-2.839 3.504-3.583 5.86 0.87-1.055 1.753-2.122 2.652-3.209 0.9-1.086 2.001-1.625 3.302-1.625 0.807 0 1.689 0.184 2.651 0.556 0.96 0.372 1.411 1.084 1.35 2.139 0 0.31-0.109 0.603-0.326 0.885-0.217 0.277-0.48 0.385-0.791 0.325-0.311-0.062-0.557-0.248-0.743-0.559-0.188-0.311-0.357-0.634-0.512-0.976s-0.325-0.654-0.512-0.931c-0.185-0.279-0.434-0.417-0.746-0.417-0.68 0.062-1.052 0.401-1.113 1.022-0.063 0.621-0.281 1.085-0.654 1.394-0.682 0.5-1.487 1.041-2.417 1.629-0.931 0.591-1.798 1.194-2.605 1.814 0.683-0.061 1.334-0.263 1.953-0.606 0.62-0.34 1.272-0.322 1.954 0.048 0.683 0.373 0.744 0.808 0.188 1.302-0.56 0.496-0.715 1.023-0.467 1.582 0.248 0.434 0.093 0.867-0.464 1.302-0.559 0.433-1.086 0.654-1.584 0.654-0.309 0-0.634 0.09-0.974 0.275-0.342 0.187-0.635 0.374-0.885 0.563 0.186 1.611 0.714 3.127 1.582 4.554 1.861-1.302 3.875-2.322 6.047-3.067 2.17-0.744 4.34-1.181 6.51-1.305 0.372-1.983 0.528-3.938 0.464-5.86m0.931 10.797c-0.433 1.367-0.978 2.65-1.627 3.861-0.651 1.208-1.35 2.375-2.093 3.488 1.115 0.31 2.17 0.465 3.161 0.465 1.922 0 3.737-0.356 5.442-1.068 1.706-0.714 3.301-1.658 4.791-2.837-1.301-0.931-2.758-1.737-4.371-2.42s-3.38-1.177-5.303-1.489m6.79-55.906c-1.735 1.055-4.744 1.952-9.023 2.698 3.66 0.496 7.164 1.289 10.512 2.373 3.348 1.09 6.496 2.282 9.442 3.584 2.945 1.304 5.596 2.685 7.952 4.143 2.356 1.46 4.373 2.814 6.045 4.053 0.372 0.248 0.73 0.527 1.071 0.836 0.342 0.313 0.698 0.59 1.07 0.838 0.185-0.493 0.277-0.964 0.277-1.397-0.061-2.232-0.897-4.265-2.51-6.1-1.611-1.828-3.721-3.473-6.325-4.933-2.605-1.46-5.519-2.701-8.745-3.723-3.223-1.024-6.479-1.815-9.766-2.372m55.436 39.913c0.87-0.497 1.708-1.086 2.515-1.767-2.42-0.248-4.809-0.775-7.166-1.582 0.744 0.557 1.506 1.117 2.28 1.677 0.778 0.556 1.567 1.113 2.371 1.672m10.886-15.255c0 2.111-0.308 4.155-0.93 6.14-0.621 1.985-1.458 3.783-2.513 5.394 1.799-0.495 3.472-1.44 5.023-2.835 1.55-1.399 2.325-3.086 2.325-5.071 0-1.425-0.418-2.79-1.255-4.091-0.838-1.304-1.876-2.203-3.117-2.699 0.312 0.868 0.467 1.922 0.467 3.162m-108.62 49.161c-2.81-0.799-5.342-1.897-7.587-3.288-3.411-2.115-6.203-4.643-8.371-7.592-2.168-2.951-3.779-6.182-4.833-9.693-1.053-3.51-1.609-7.032-1.673-10.569-0.06-4.659 0.915-9.212 2.932-13.654 2.014-4.441 4.802-8.399 8.369-11.877 3.564-3.475 7.749-6.27 12.556-8.385 4.804-2.109 9.998-3.168 15.578-3.168 2.728 0 5.565 0.034 8.51 0.091 2.946 0.065 5.922 0.315 8.928 0.746 3.008 0.435 5.999 1.147 8.976 2.141 2.976 0.993 5.858 2.417 8.648 4.28 4.466 2.912 8.79 6.028 12.975 9.346 4.186 3.316 8.076 6.37 11.673 9.162 3.596 2.791 6.804 5.117 9.626 6.976 2.821 1.863 5.099 2.791 6.835 2.791 0.682 0 1.334-0.09 1.953-0.279-3.966-3.508-8.09-6.913-12.37-10.209-4.278-3.297-8.618-6.549-13.021-9.754-0.494 0.618-1.053 0.929-1.672 0.929-1.056 0-1.985-0.343-2.792-1.031l1.395-0.466c0.124 0.188 0.297 0.31 0.513 0.372 0.217 0.06 0.388 0.094 0.512 0.094 0.309 0 0.619-0.221 0.929-0.654-0.992-0.743-1.968-1.475-2.93-2.191-0.96-0.714-1.968-1.442-3.024-2.191-2.539-1.864-5.099-3.51-7.672-4.939-2.571-1.432-5.332-2.658-8.278-3.685-2.943-1.023-6.122-1.818-9.532-2.374-3.411-0.563-7.255-0.904-11.534-1.025-2.478 0.299-5.239 0.596-8.277 0.895-3.037 0.293-6.417 0.622-10.138 0.975l-0.466-1.461c1.18-0.486 3.211-0.834 6.093-1.049 2.882-0.211 5.969-0.438 9.255-0.686l0.279-0.182c0.621-0.058 1.226-0.09 1.814-0.09h1.814c2.481-0.244 4.867-0.577 7.161-1.002 2.294-0.424 4.28-0.969 5.951-1.638-1.611-0.246-3.161-0.396-4.648-0.456-1.489-0.06-2.914-0.091-4.279-0.091-4.216 0.061-8.201 0.574-11.951 1.53-3.751 0.967-7.611 2.067-11.58 3.308l0.091-1.489c3.907-1.179 7.922-2.359 12.046-3.546 4.124-1.18 8.356-1.773 12.695-1.773 3.225 0 6.696 0.28 10.418 0.835 1.176-0.99 1.798-2.103 1.859-3.341 0.127-1.735-0.526-3.437-1.951-5.111-1.429-1.672-3.163-2.536-5.21-2.595-0.683 0-1.426 0.078-2.233 0.23-0.804 0.153-1.564 0.384-2.278 0.693-0.712 0.313-1.301 0.732-1.767 1.259-0.465 0.527-0.698 1.101-0.698 1.72 0 0.31 0.063 0.634 0.187 0.975 0.124 0.342 0.25 0.669 0.372 0.98l-1.49 1.395c-0.309-0.374-0.554-0.886-0.742-1.537-0.186-0.649-0.279-1.224-0.279-1.722 0-0.68 0.311-1.359 0.929-2.045 0.622-0.679 1.38-1.265 2.28-1.751 0.899-0.484 1.875-0.873 2.928-1.167 1.054-0.293 2.016-0.443 2.883-0.443 1.676 0 3.056 0.307 4.14 0.923 1.086 0.616 1.969 1.4 2.65 2.354 0.682 0.952 1.147 2 1.395 3.137 0.248 1.135 0.371 2.229 0.371 3.276 0 1.289-0.308 2.369-0.931 3.236 3.228 0.622 6.434 1.474 9.627 2.558 3.196 1.086 6.062 2.4 8.606 3.95 2.542 1.547 4.588 3.327 6.136 5.344 1.55 2.012 2.326 4.259 2.326 6.738 0 0.742-0.154 1.576-0.465 2.509 1.799 1.421 3.581 2.819 5.348 4.182 1.766 1.36 3.55 2.725 5.347 4.088 0.683-0.25 1.381-0.557 2.093-0.929 0.715-0.373 1.505-0.556 2.373-0.556 0.495 0 1.179 0.137 2.046 0.415 0.867 0.279 1.146 0.636 0.836 1.07-0.372 0.494-0.525 0.946-0.464 1.348 0.061 0.401 0.248 0.605 0.557 0.605 0.619 0 1.178-0.094 1.674-0.28 0.496-0.188 0.714-0.475 0.651-0.868 0-0.169-0.093-0.388-0.277-0.654-0.187-0.265-0.25-0.497-0.187-0.696 0.123-0.519 0.683-0.842 1.674-0.964 0.31-0.063 0.588 0.08 0.836 0.433 0.248 0.352 0.372 0.696 0.372 1.029-0.061 0.893-0.293 1.696-0.696 2.41-0.404 0.716-0.947 1.074-1.629 1.074-1.24 0-2.511-0.175-3.813-0.515-1.301-0.341-2.574-0.698-3.813-1.068 0.804 0.68 1.659 1.332 2.557 1.951 0.9 0.622 1.783 1.271 2.651 1.954 1.984 1.117 4.109 1.908 6.372 2.37 2.262 0.467 4.541 0.73 6.835 0.791 1.239-1.422 2.249-3.053 3.023-4.881 0.776-1.832 1.161-3.742 1.161-5.733 0-1.488-0.335-2.977-1.006-4.466-0.731 0.25-1.371 0.651-1.92 1.21-0.548 0.559-0.824 1.023-0.824 1.395 0 0.622 0.235 1.054 0.704 1.302s0.703 0.65 0.703 1.208c0 0.333-0.124 0.681-0.375 1.047-0.249 0.364-0.53 0.549-0.843 0.549-0.689 0-1.314-0.297-1.874-0.891-0.566-0.594-0.845-1.299-0.845-2.109 0-1.065 0.431-2.096 1.295-3.095 0.863-1 1.85-1.749 2.959-2.249-1.049-1.375-2.28-2.032-3.699-1.972-1.3 0.064-2.524 0.404-3.671 1.024-1.147 0.622-2.341 1.287-3.58 1.999-1.241 0.714-2.59 1.365-4.048 1.956-1.455 0.588-3.148 0.883-5.069 0.883-0.992 0-2.077-0.264-3.254-0.791-1.179-0.528-2.249-1.196-3.209-2.001-0.962-0.807-1.738-1.658-2.328-2.56-0.588-0.902-0.821-1.727-0.696-2.476l1.953 0.938c-0.063 0.313 0.093 0.638 0.464 0.98 0.372 0.344 0.715 0.515 1.024 0.515 1.304 0 2.575-0.344 3.814-1.031 1.24-0.685 2.466-1.434 3.674-2.246 1.21-0.811 2.435-1.547 3.675-2.204 1.239-0.655 2.542-0.952 3.905-0.891 3.227 0.128 6.089 0.877 8.59 2.25 2.5 1.376 4.367 3.127 5.598 5.251 0.864 0.188 1.665 0.595 2.405 1.219 0.739 0.625 1.402 1.36 1.989 2.203 0.584 0.844 1.032 1.735 1.342 2.672 0.305 0.938 0.46 1.813 0.46 2.626 0 1.421-0.291 2.75-0.873 3.99-0.585 1.235-1.334 2.318-2.253 3.248-0.919 0.927-1.946 1.653-3.081 2.18-1.133 0.529-2.282 0.793-3.449 0.793h-0.092c-1.179 1.357-2.513 2.5-4 3.432 1.676 0.865 3.527 1.887 5.555 3.062 2.029 1.175 3.871 1.763 5.525 1.763 0.492 0 1.045-0.078 1.657-0.23 0.611-0.16 0.95-0.388 1.011-0.699 0.065-0.251-0.09-0.468-0.462-0.653-0.374-0.185-0.529-0.433-0.469-0.742 0.124-0.743 0.565-1.119 1.32-1.119 0.65 0 1.169 0.236 1.559 0.699 0.389 0.465 0.584 0.915 0.584 1.351 0 1.055-0.574 1.707-1.72 1.955-1.148 0.25-2.342 0.376-3.582 0.376-0.681 0-1.393-0.062-2.138-0.184-0.745-0.126-1.458-0.282-2.141-0.467 2.422 1.413 5.024 2.594 7.812 3.544 2.79 0.945 5.517 1.42 8.179 1.42 2.414 0 4.489-0.372 6.225-1.118 1.735-0.744 3.188-1.686 4.365-2.834 1.177-1.146 2.044-2.432 2.602-3.857 0.556-1.428 0.835-2.852 0.835-4.276 0-2.416-0.897-4.713-2.691-6.878-1.797-2.173-4.364-3.288-7.706-3.351-1.857 0-3.343 0.25-4.454 0.753-1.114 0.504-1.982 1.15-2.602 1.935-0.62 0.784-1.021 1.634-1.206 2.545-0.186 0.911-0.279 1.779-0.279 2.593 0 0.691 0.138 1.449 0.415 2.264 0.275 0.818 0.675 1.574 1.196 2.265 0.522 0.692 1.135 1.271 1.842 1.743 0.706 0.472 1.487 0.706 2.347 0.706 0.981 0 1.948-0.468 2.9-1.41 0.95-0.945 1.426-1.982 1.426-3.113 0-0.443-0.079-0.885-0.229-1.324-0.159-0.44-0.235-0.879-0.235-1.318 0-0.251 0.11-0.567 0.334-0.944 0.225-0.378 0.457-0.708 0.699-0.99 0.238-0.281 0.47-0.438 0.691-0.472 0.218-0.032 0.33 0.143 0.33 0.519 0 0.378-0.095 0.581-0.279 0.614-0.187 0.03-0.28 0.236-0.28 0.61 0 0.441 0.156 1.008 0.468 1.7 0.313 0.69 0.471 1.257 0.471 1.699 0 1.946-0.618 3.393-1.848 4.337-1.229 0.942-2.492 1.445-3.785 1.507-0.923 0-1.863-0.234-2.816-0.702-0.954-0.469-1.799-1.111-2.538-1.923-0.739-0.811-1.359-1.701-1.858-2.671-0.502-0.971-0.75-1.923-0.75-2.859 0-0.813 0.169-1.769 0.512-2.861 0.338-1.091 0.849-2.14 1.532-3.139 0.683-1 1.549-1.828 2.602-2.485 1.055-0.657 2.263-0.984 3.626-0.984 2.603 0 4.788 0.339 6.556 1.019 1.765 0.681 3.174 1.562 4.228 2.642 1.054 1.082 1.798 2.336 2.231 3.756 0.435 1.421 0.651 2.906 0.651 4.45 0 1.735-0.358 3.434-1.07 5.104-0.714 1.669-1.708 3.153-2.976 4.448-1.274 1.301-2.826 2.335-4.656 3.108-1.832 0.774-3.862 1.161-6.094 1.161-2.298 0-4.623-0.311-6.981-0.928-2.358-0.62-4.653-1.425-6.888-2.416-2.232-0.99-4.357-2.133-6.374-3.433-2.014-1.299-3.862-2.66-5.538-4.085-1.116 0.494-2.278 0.898-3.488 1.208-1.21 0.311-2.435 0.466-3.676 0.466-3.969 0.061-7.908-0.635-11.815-2.095-3.907-1.456-7.693-3.364-11.352-5.719-3.66-2.355-7.197-5.023-10.608-7.998-3.411-2.976-6.607-5.986-9.583-9.024-3.909-3.966-8.142-6.744-12.702-8.325-4.558-1.58-9.443-2.371-14.655-2.371-9.925 0.06-17.555 3.389-22.888 9.98-5.336 6.599-7.911 15.769-7.723 27.52 0.064 2.549 0.564 5.113 1.5 7.692 0.938 2.579 2.276 4.94 4.013 7.087 1.737 2.141 3.86 3.942 6.373 5.398 2.514 1.46 5.383 2.345 8.605 2.654 1.117-1.364 2.25-2.729 3.398-4.094s2.249-2.703 3.302-4.002c-1.053 0.556-2.14 1.085-3.255 1.582-1.118 0.498-2.264 0.746-3.445 0.746-1.611 0-2.835-0.547-3.674-1.637-0.837-1.089-1.256-2.162-1.256-3.214 0-0.437 0.124-0.853 0.372-1.256 0.25-0.405 0.777-0.668 1.581-0.793-0.311 1.057-0.277 2.138 0.094 3.259 0.373 1.113 1.427 1.64 3.163 1.584 1.675-0.066 3.242-0.576 4.7-1.538 1.457-0.961 2.962-1.78 4.511-2.462 0.498-0.497 0.87-0.838 1.117-1.024-0.557-0.991-1.007-2.063-1.348-3.205-0.342-1.148-0.513-2.401-0.513-3.767 0.061-4.214 1.086-7.777 3.071-10.689s4.59-4.865 7.814-5.856c-3.1-2.727-6.327-4.089-9.676-4.089-1.736 0-3.426 0.433-5.071 1.3-1.643 0.868-2.465 2.229-2.465 4.092 0 1.608 0.342 3.205 1.025 4.785 0.682 1.58 0.992 3.18 0.928 4.79-0.122 2.169-0.899 4.165-2.325 5.994-1.427 1.83-3.1 2.805-5.025 2.931-0.743 0.057-1.41-0.081-1.998-0.423-0.589-0.338-1.226-0.85-1.908-1.533 1.053-0.248 2.047-0.417 2.976-0.512 0.932-0.093 1.397-0.727 1.397-1.904 0-1.552-0.217-3.027-0.652-4.421-0.434-1.398-0.682-2.806-0.745-4.233 0-2.731 0.371-4.946 1.117-6.652 0.743-1.704 1.738-3.04 2.977-4.001 1.241-0.96 2.652-1.643 4.234-2.044 1.583-0.406 3.21-0.609 4.885-0.609 1.922 0 4.233 0.449 6.931 1.342 2.697 0.896 5.101 2.393 7.211 4.492h0.371c1.178 0 2.404 0.305 3.677 0.924 1.271 0.618 2.434 1.433 3.488 2.452s1.909 2.126 2.56 3.334c0.651 1.2 0.976 2.393 0.976 3.571 0 0.744-0.231 1.456-0.696 2.139-0.467 0.683-0.7 1.399-0.7 2.143 0 0.432 0.064 0.894 0.186 1.392 0.124 0.494 0.218 0.991 0.281 1.49-0.869-0.126-1.397-0.374-1.584-0.745-0.184-0.375-0.31-0.776-0.372-1.209-0.06-1.054 0.217-2.19 0.839-3.396 0.621-1.21 0.838-2.341 0.65-3.396-0.124-0.682-0.45-1.38-0.977-2.094-0.528-0.713-1.178-1.396-1.953-2.045-0.776-0.651-1.614-1.208-2.513-1.674-0.899-0.467-1.753-0.758-2.558-0.881 0.929 1.237 1.675 2.663 2.234 4.276 0.558 1.612 0.836 3.418 0.836 5.418 0 2.564-0.217 4.842-0.652 6.843 4.901 0.186 9.275 1.363 13.12 3.534 0.124-0.249 0.248-0.464 0.373-0.649 0.403-0.603 0.401-0.63 0.93-1.675 1.239-2.471 1.86-4.944 1.86-7.415 0-3.95-0.836-7.702-2.513-11.253-1.674-3.55-3.876-6.721-6.605-9.511 0.496 1.244 0.823 2.501 0.976 3.776 0.155 1.273 0.264 2.503 0.327 3.679 0 0.622-0.217 1.253-0.651 1.908-0.433 0.649-1.116 1.008-2.048 1.069-0.433 0-0.744-0.264-0.931-0.791-0.185-0.527-0.279-0.915-0.279-1.161 0-0.188 0.124-0.313 0.372-0.376 0.25-0.061 0.514-0.107 0.792-0.14 0.28-0.029 0.544-0.103 0.791-0.228 0.248-0.125 0.403-0.373 0.465-0.743 0.062-0.311-0.172-0.545-0.699-0.701-0.527-0.155-0.757-0.387-0.697-0.698 0.188-1.312 0.124-2.637-0.186-3.972-0.311-1.336-0.636-2.33-0.978-2.979-0.339-0.651-0.589-0.777-0.744-0.376-0.155 0.403-0.014 1.694 0.419 3.862-0.31 0.311-0.804 0.528-1.487 0.65-0.683 0.125-1.333-0.091-1.955-0.65-0.494-0.434-0.898-0.915-1.21-1.442-0.31-0.527-0.402-1.131-0.28-1.814 0.807-0.433 1.366-0.975 1.676-1.625 0.311-0.653 0.62-1.318 0.931-2-2.855-1.984-5.893-3.538-9.116-4.65-3.228-1.119-6.389-1.676-9.494-1.676-4.463 0-8.418 0.728-11.861 2.184-3.442 1.46-6.343 3.533-8.699 6.232-2.357 2.7-4.14 5.976-5.352 9.829-1.21 3.857-1.814 8.212-1.814 13.068h-1.395c0-5.664 0.667-10.547 2.001-14.65 1.334-4.101 3.256-7.487 5.767-10.155 2.514-2.666 5.536-4.644 9.073-5.951 3.535-1.303 7.443-1.951 11.724-1.951 3.597 0 7.258 0.603 10.977 1.813 3.723 1.21 7.229 2.961 10.514 5.253 4.033 2.418 7.599 5.538 10.699 9.363 3.105 3.821 6.021 7.785 8.747 11.893 1.054 1.554 2.172 3.092 3.351 4.619 1.178 1.523 2.388 2.893 3.627 4.102 1.241 1.21 2.513 2.17 3.815 2.883 1.304 0.713 2.605 1.072 3.91 1.072 0.93 0 1.908-0.329 2.929-0.978 1.025-0.651 1.536-1.472 1.536-2.466 0-0.248 0.063-0.558 0.185-0.928 0.126-0.374 0.343-0.559 0.651-0.559 0.807 0.062 1.257 0.289 1.35 0.694 0.095 0.398 0.14 0.815 0.14 1.249 0 0.615-0.217 1.201-0.652 1.758-0.432 0.555-0.977 1.031-1.627 1.434-0.65 0.399-1.349 0.725-2.095 0.97-0.744 0.248-1.426 0.374-2.046 0.374-1.428-0.065-2.855-0.464-4.281-1.206-1.426-0.74-2.884-1.788-4.374-3.144 2.856 4.192 5.755 7.741 8.701 10.648 2.949 2.903 6.282 4.324 10.003 4.265 2.046 0 3.489-0.482 4.327-1.444 0.837-0.96 1.442-2.03 1.814-3.207 0.371-1.179 0.714-2.251 1.022-3.213 0.312-0.96 0.931-1.441 1.862-1.441 0.432 0 0.805 0.141 1.115 0.42 0.312 0.278 0.638 0.588 0.979 0.929 0.339 0.342 0.667 0.668 0.977 0.978 0.309 0.31 0.683 0.498 1.115 0.556 0.559 0.065 1.118 0.065 1.677 0 0.557-0.058 0.867-0.37 0.929-0.928h1.022c0.187 2.171-0.657 3.319-2.53 3.443-0.807 0-1.441-0.124-1.906-0.372-0.466-0.25-0.869-0.529-1.21-0.838-0.34-0.312-0.665-0.608-0.976-0.884-0.311-0.279-0.714-0.421-1.21-0.421-0.37 0-0.541 0.433-0.51 1.305 0.032 0.867-0.124 1.796-0.465 2.789-0.341 0.992-1.037 1.889-2.092 2.697-1.057 0.803-2.882 1.144-5.487 1.02-3.286-0.122-6.262-1.177-8.928-3.157-2.666-1.988-5.269-4.512-7.813-7.583-2.542-3.072-5.129-6.539-7.764-10.419-2.635-3.872-5.533-7.764-8.697-11.671 0.683 1.733 1.242 3.533 1.674 5.396 0.436 1.858 0.652 3.812 0.652 5.86 0 1.365-0.216 2.773-0.652 4.229-0.21 0.708-0.452 1.411-0.721 2.096-2.892 7.07-8.182 10.971-8.182 10.971l-0.032 0.078c-1.127 0.859-2.29 1.568-3.502 2.138-1.643 0.773-3.241 1.162-4.792 1.162-0.991 0-1.997-0.046-3.023-0.137-1.02-0.095-2.059-0.295-3.114-0.606-2.109 2.851-4.574 5.188-7.396 7.016-0.661 0.427-1.322 0.82-1.995 1.179l-1.846 0.754c-8.99 3.729-18.908 0.623-18.908 0.623z" fill="#004ea2" fill-rule="evenodd"/></g><g transform="translate(851.5 603.64)"><path d="m0 0c3.468 1.207 7.269 1.674 11.406 1.409 4.139-0.263 8.49-1.545 13.058-3.834-1.432 0.221-2.976 0.547-4.629 0.987-1.656 0.432-3.48 0.838-5.476 1.209s-4.191 0.623-6.587 0.748c-2.395 0.127-4.987-0.047-7.772-0.519m20.478-14.279c1.456-0.931 2.614-2.377 3.471-4.346s1.262-3.892 1.217-5.77c-3.13 1.634-6.581 3.083-10.354 4.352-3.774 1.267-7.553 1.999-11.34 2.196 1.785 2.342 4.209 4.022 7.262 5.034 3.049 1.007 6.3 0.522 9.744-1.466m-5.003-18.12c0.91-0.526 1.899-0.729 2.964-0.608 1.068 0.122 2.095 0.437 3.084 0.951 0.991 0.513 1.904 1.157 2.741 1.931 0.835 0.774 1.496 1.584 1.983 2.428l0.225 0.389c1.59-1.003 3.132-2.046 4.631-3.128 1.497-1.081 2.918-2.184 4.263-3.304-1.256-1.878-2.865-3.614-4.827-5.212s-4.13-2.839-6.502-3.721c-2.374-0.886-4.879-1.281-7.512-1.189-2.632 0.091-5.218 0.867-7.753 2.33-1.364 0.788-2.741 1.93-4.13 3.425 0.448 0.175 0.864 0.37 1.246 0.583 0.383 0.212 0.686 0.513 0.911 0.902 0.561 0.973 0.881 1.939 0.954 2.893 0.077 0.954 0.21 1.897 0.399 2.827-3.656-1.53-5.723-1.809-6.204-0.84 0.133 0.528 0.299 1.043 0.498 1.535 0.197 0.491 0.426 0.966 0.689 1.42 0.338 0.586 0.886 0.748 1.643 0.484 0.758-0.266 1.361-9e-3 1.811 0.773 0.188 0.324 0.234 0.666 0.139 1.024-0.097 0.359-0.305 0.635-0.63 0.822-0.586 0.338-1.239 0.257-1.958-0.237-0.72-0.493-1.266-1.066-1.642-1.718-0.75-1.298-1.289-2.68-1.611-4.14-0.597 1.818-0.806 3.78-0.628 5.889 0.177 2.108 0.903 4.267 2.179 6.478l0.057 0.098c3.966-0.038 7.872-0.774 11.719-2.213 3.847-1.444 7.381-3.05 10.603-4.825-0.246-0.724-0.463-1.251-0.649-1.573-0.601-1.042-1.664-1.794-3.189-2.257-1.523-0.464-2.641-0.488-3.356-0.076-0.909 0.526-2.076 0.87-3.493 1.042-1.421 0.164-2.374-0.17-2.862-1.015-0.262-0.456-0.424-1.034-0.483-1.737s0.301-1.279 1.08-1.729c-0.071 0.474-0.019 0.9 0.156 1.278 0.172 0.375 0.355 0.728 0.542 1.054 0.224 0.386 0.652 0.376 1.283-0.03 0.632-0.408 1.175-0.743 1.629-1.004m-35.911 1.459c-1.013-1.756-1.723-3.549-2.137-5.389-0.41-1.839-0.571-3.65-0.478-5.44-0.366 2.816-0.083 5.592 0.854 8.342 0.934 2.743 1.969 5.175 3.104 7.291 3.238 5.757 7.087 9.946 11.547 12.571 4.46 2.624 9.176 4.19 14.149 4.698 4.972 0.506 10.053 0.15 15.241-1.068 5.188-1.219 10.078-2.805 14.667-4.762 1.179-2.761 1.82-5.664 1.923-8.712 0.1-3.052-0.533-5.915-1.904-8.588-1.473 1.2-2.987 2.33-4.534 3.4-1.551 1.067-3.138 2.071-4.764 3.009 0.747 2.343 0.595 4.593-0.45 6.761-1.05 2.161-2.773 3.938-5.178 5.327-2.598 1.5-4.992 2.382-7.178 2.648s-4.168 0.132-5.947-0.396c-1.783-0.535-3.354-1.38-4.718-2.541-1.363-1.163-2.528-2.504-3.493-4.025-3.846-0.211-7.593-1.295-11.242-3.262-3.647-1.968-6.801-5.256-9.462-9.864m97.225 11.312c2.014-1.162 3.55-2.7 4.612-4.616-3.055-0.487-6.347-0.56-9.87-0.213-3.527 0.347-7.158 1.038-10.895 2.066l0.282 0.489c0.561 0.972 1.493 1.76 2.79 2.355 1.296 0.594 2.724 1.002 4.282 1.228s3.122 0.236 4.692 0.021c1.566-0.211 2.936-0.654 4.107-1.33m-37.244-14.53c1.649 2.858 2.481 5.8 2.495 8.826 0.016 3.025-0.551 5.95-1.691 8.774 0.362-0.123 0.715-0.261 1.06-0.415 0.344-0.157 0.677-0.326 1.003-0.513 2.674-1.372 5.29-2.58 7.85-3.624 2.561-1.045 5.043-1.962 7.451-2.742-0.109-1.239 0.166-2.417 0.821-3.532 0.656-1.116 1.368-2.133 2.136-3.05 0.768-0.919 1.461-1.668 2.085-2.244 0.618-0.575 0.874-0.96 0.762-1.153-0.198-0.492-0.603-0.821-1.218-0.987-0.615-0.164-1.166-0.367-1.651-0.607 2.376-1.286 3.977-1.216 4.803 0.216 0.413 0.715 0.366 1.459-0.142 2.228-0.511 0.769-1.142 1.587-1.896 2.457-0.756 0.87-1.481 1.785-2.179 2.753-0.699 0.968-1.064 2.022-1.095 3.17 8.561-2.429 15.957-2.974 22.191-1.636 0.66-1.856 0.871-3.78 0.637-5.764-0.238-1.983-0.824-3.79-1.762-5.413-1.801-3.119-4.085-5.311-6.85-6.575-2.766-1.264-5.683-1.853-8.754-1.77-3.071 0.086-6.13 0.641-9.179 1.664-3.048 1.024-5.807 2.247-8.276 3.673-1.561 0.901-3.069 1.853-4.519 2.867-1.452 1.01-2.87 2.046-4.251 3.105zm-61.661-12.522 1.287 0.428c-0.632 2.358-0.777 4.845-0.436 7.464 0.343 2.619 1.096 4.934 2.258 6.948 2.441 4.226 5.246 7.285 8.418 9.179 3.173 1.893 6.502 3.005 9.984 3.336-1.249-2.316-1.869-4.664-1.862-7.051 0.01-2.389 0.411-4.655 1.207-6.806 0.796-2.149 1.933-4.083 3.408-5.803 1.476-1.719 3.093-3.083 4.846-4.096 2.965-1.624 5.966-2.58 9.009-2.863 3.042-0.282 5.947-0.052 8.713 0.689 2.766 0.739 5.338 1.926 7.702 3.548 2.366 1.622 4.337 3.497 5.908 5.619 1.412-1.158 2.833-2.262 4.267-3.306 1.432-1.044 2.929-2.014 4.489-2.916 2.731-1.575 5.735-2.856 9.023-3.845 3.284-0.988 6.536-1.432 9.753-1.341 3.215 0.093 6.282 0.901 9.196 2.42 2.916 1.526 5.419 4.022 7.511 7.494 1.039 1.652 1.689 3.528 1.952 5.633 0.258 2.102 0.06 4.159-0.595 6.173 6.535 1.716 11.537 5.652 15.004 11.805 2.249 3.897 3.01 7.466 2.28 10.702-0.73 3.239-2.624 5.74-5.678 7.502-1.299 0.75-2.954 1.338-4.962 1.76-2.009 0.424-3.437 0.275-4.288-0.446l0.172-2.18c1.104 1.01 2.488 1.311 4.164 0.908 1.675-0.401 3.098-0.939 4.268-1.615 2.468-1.425 3.945-3.818 4.434-7.175 0.488-3.355-0.132-6.531-1.857-9.518-1.613-2.794-3.661-4.988-6.141-6.586-2.486-1.604-5.291-2.709-8.419-3.327-0.547 1.004-1.206 1.927-1.977 2.763-0.777 0.836-1.746 1.593-2.916 2.269-1.431 0.826-3.046 1.517-4.844 2.08-1.799 0.563-3.588 0.84-5.369 0.828-1.783-0.012-3.488-0.414-5.114-1.203-1.628-0.796-3.005-2.166-4.131-4.116l-0.223-0.387c-1.683 0.538-3.346 1.106-4.992 1.711-1.645 0.603-3.303 1.257-4.975 1.964 1.934-0.253 3.792-0.15 5.573 0.308 1.781 0.457 3.044 1.333 3.796 2.634 0.375 0.651 0.635 1.475 0.778 2.474 0.145 1.002-0.107 1.69-0.757 2.066-0.195 0.114-0.501 0.223-0.915 0.331-0.412 0.108-0.751-0.065-1.014-0.52-0.3-0.522-0.173-1.091 0.377-1.711 0.551-0.621 0.62-1.287 0.206-2.006-0.263-0.455-0.603-0.82-1.023-1.097-0.325 0.188-0.659 0.358-1.002 0.514-0.344 0.157-0.801 0.267-1.368 0.335-0.94 0.022-1.867-0.158-2.781-0.539-0.913-0.382-1.818-0.748-2.714-1.099-0.165 0.01-0.349 0.031-0.551 0.057-0.198 0.031-0.383 0.048-0.548 0.063 0.559 0.365 1.12 0.777 1.686 1.234 0.566 0.453 1.016 0.972 1.353 1.555 0.45 0.78 0.124 1.488-0.981 2.125-0.91 0.526-1.93 0.747-3.059 0.667-1.132-0.084-2.312-0.291-3.543-0.621 0.703-1.186 0.794-2.452 0.275-3.797-0.494 0.194-0.976 0.407-1.447 0.639-0.473 0.232-0.99 0.464-1.55 0.697-2.085 3.889-4.81 7.199-8.18 9.921 1.893 0.726 3.473 2.111 4.735 4.149 1.079 1.716 1.543 3.346 1.401 4.901-0.144 1.55-1.19 2.891-3.139 4.017-0.974 0.561-2.039 0.853-3.199 0.871-1.16 0.023-2.245 0.281-3.254 0.782-0.391 0.226-0.612 0.481-0.663 0.769-0.049 0.29-0.038 0.605 0.032 0.955 0.072 0.346 0.115 0.645 0.13 0.898 0.014 0.251-0.108 0.452-0.368 0.603-0.519 0.299-1.064 0.446-1.635 0.43-0.567-7e-3 -0.981-0.235-1.238-0.68-0.45-0.927-0.378-1.817 0.215-2.666 0.594-0.851 1.227-1.515 1.904-1.992 1.2-0.775 2.374-1.031 3.524-0.762 1.152 0.268 2.216 0.122 3.19-0.441 1.429-0.825 2.102-1.873 2.024-3.137-0.083-1.271-0.419-2.411-1.006-3.428-0.638-1.106-1.332-1.936-2.09-2.498-0.756-0.558-1.546-0.949-2.364-1.164-0.355 0.285-0.725 0.545-1.115 0.77s-0.746 0.431-1.073 0.619c-6.432 3.714-12.693 5.248-18.784 4.606-6.091-0.643-11.568-2.552-16.432-5.721l-0.897-0.653c-5.367-3.746-9.523-8.322-12.47-13.723-2.609-4.82-4.209-9.917-4.8-15.294-0.591-5.378 0.323-10.545 2.75-15.495l1.049 0.693c-2.006 4.626-2.882 9.225-2.625 13.796 0.258 4.574 1.798 9.384 4.625 14.426 1.613 2.794 3.555 5.484 5.83 8.072 2.272 2.584 4.81 4.804 7.608 6.652 3.544 1.335 6.978 1.994 10.307 1.979 3.326-0.017 6.495-0.266 9.509-0.747 3.013-0.487 5.831-1.009 8.454-1.569 2.623-0.559 4.998-0.72 7.132-0.478 1.393-0.889 2.679-2.002 3.86-3.333 1.181-1.33 2.229-2.777 3.144-4.345-4.63 1.886-9.472 3.365-14.536 4.425-5.062 1.06-10.043 1.291-14.937 0.695-4.892-0.598-9.583-2.267-14.067-5.004-4.483-2.741-8.448-7.019-11.887-12.827-1.867-3.081-3.164-6.492-3.893-10.231-0.728-3.739-0.235-7.577 1.476-11.511l0.282 0.488z" fill="#004ea2" fill-rule="evenodd"/></g><g transform="translate(682.65 523.22)"><path d="m0 0 0.279-1.743c2.108 0.547 4.293 1.3 6.557 2.259 2.263 0.958 4.575 1.435 6.932 1.435 0.865 0 1.875-0.218 3.022-0.65 1.147-0.434 1.721-1.024 1.721-1.768 0-0.241-0.141-0.394-0.419-0.456-0.28-0.06-0.604-0.106-0.976-0.138-0.371-0.029-0.714-0.106-1.025-0.228-0.308-0.117-0.464-0.363-0.464-0.728-0.063-0.426 0.185-0.855 0.744-1.278 0.558-0.426 1.115-0.608 1.676-0.55 0.99 0.062 1.733 0.504 2.229 1.324 0.495 0.821 0.745 1.6 0.745 2.334 0 1.302-0.761 2.39-2.28 3.258-1.518 0.866-2.929 1.3-4.23 1.3-2.728 0-5.225-0.557-7.487-1.676-2.265-1.113-4.606-2.012-7.024-2.695m-0.059 0.63c7.504 2.854 13.022 5.674 16.558 8.463 3.533 2.79 5.424 5.427 5.673 7.905 0.122 0.622 0.077 1.348-0.139 2.186-0.219 0.837-0.73 1.289-1.537 1.349-0.496 0.064-0.929-0.277-1.3-1.02-0.374-0.744-0.591-1.366-0.652-1.862-0.063-0.436 0.17-0.838 0.697-1.21s0.791-0.773 0.791-1.206c0-0.622-0.712-1.524-2.14-2.701-1.427-1.179-3.193-2.447-5.301-3.812-2.109-1.363-4.387-2.698-6.837-4-2.449-1.301-4.697-2.387-6.744-3.258zm-3.071-1.47c-0.868 0-1.301-0.401-1.301-1.212 0-0.804 0.433-1.206 1.301-1.206s1.304 0.402 1.304 1.206c0 0.811-0.436 1.212-1.304 1.212m0 1.487c-0.805 0-1.472-0.263-1.999-0.791-0.527-0.527-0.791-1.13-0.791-1.814 0-0.683 0.264-1.3 0.791-1.862 0.527-0.558 1.194-0.837 1.999-0.837 0.806 0 1.489 0.279 2.048 0.837 0.557 0.562 0.838 1.179 0.838 1.862 0 0.684-0.281 1.287-0.838 1.814-0.559 0.528-1.242 0.791-2.048 0.791m-10.417 62.79c-0.061-0.254-0.109-0.528-0.14-0.839s-0.077-0.621-0.138-0.932c0.248 0.311 0.496 0.621 0.744 0.932s0.496 0.585 0.744 0.839h-0.28zm-1.86-0.19c-2.293-0.31-4.542-0.977-6.744-2.001-2.201-1.022-4.171-2.401-5.906-4.139 1.301-0.557 2.524-1.242 3.673-2.044 1.149-0.81 2.157-1.771 3.026-2.884 0.061 0.059 0.122 0.106 0.183 0.137 0.061 0.034 0.124 0.08 0.187 0.14 0.62 0.868 1.271 1.751 1.954 2.652 0.682 0.898 1.363 1.783 2.046 2.649 0.372 0.807 0.682 1.676 0.93 2.608 0.248 0.929 0.465 1.891 0.651 2.882m20.837-28.983-1.489 0.466c-0.187-4.777-1.118-8.558-2.79-11.352-1.676-2.787-3.659-4.926-5.953-6.421-2.294-1.487-4.667-2.467-7.116-2.936-2.45-0.461-4.575-0.696-6.373-0.696-2.666 0.065-5.115 0.482-7.348 1.259-2.231 0.779-4.558 2.473-6.976 5.074l-0.465-1.019c2.045-2.801 4.449-4.695 7.209-5.684 2.76-0.995 5.566-1.52 8.416-1.582 2.729 0 5.487 0.449 8.279 1.348 2.79 0.899 5.287 2.28 7.49 4.143 2.2 1.864 3.966 4.237 5.3 7.122 1.334 2.882 1.938 6.308 1.816 10.278m-35.72 15.033c2.542 0 4.899 0.557 7.071 1.672-1.552 1.983-3.569 3.628-6.048 4.93-1.613-1.798-2.945-3.97-4-6.512 0.496-0.063 0.994-0.09 1.49-0.09zm-4.743-10.248c0.061-2.111 0.464-4.033 1.21-5.767 0.743-1.737 1.704-3.287 2.882-4.651 2.481 0.496 4.543 1.523 6.186 3.069 1.644 1.553 2.838 3.504 3.582 5.86-0.869-1.055-1.753-2.122-2.652-3.209-0.899-1.086-2.001-1.625-3.301-1.625-0.807 0-1.69 0.184-2.652 0.556-0.96 0.372-1.41 1.084-1.35 2.139 0 0.31 0.11 0.603 0.327 0.885 0.216 0.277 0.48 0.385 0.791 0.325 0.311-0.062 0.556-0.248 0.743-0.559s0.356-0.634 0.512-0.976c0.155-0.342 0.324-0.654 0.511-0.931 0.185-0.279 0.435-0.417 0.746-0.417 0.681 0.062 1.053 0.401 1.113 1.022 0.063 0.621 0.282 1.085 0.654 1.394 0.682 0.5 1.487 1.041 2.418 1.629 0.93 0.591 1.798 1.194 2.605 1.814-0.683-0.061-1.334-0.263-1.954-0.606-0.62-0.34-1.271-0.322-1.954 0.048-0.683 0.373-0.743 0.808-0.187 1.302 0.559 0.496 0.715 1.023 0.467 1.582-0.248 0.434-0.093 0.867 0.464 1.302 0.559 0.433 1.086 0.654 1.583 0.654 0.31 0 0.634 0.09 0.975 0.275 0.342 0.187 0.635 0.374 0.885 0.563-0.187 1.611-0.714 3.127-1.582 4.554-1.861-1.302-3.876-2.322-6.048-3.067-2.17-0.744-4.34-1.181-6.51-1.305-0.372-1.983-0.527-3.938-0.464-5.86m-0.931 10.797c0.433 1.367 0.978 2.65 1.628 3.861 0.65 1.208 1.349 2.375 2.093 3.488-1.116 0.31-2.171 0.465-3.162 0.465-1.922 0-3.736-0.356-5.442-1.068-1.705-0.714-3.301-1.658-4.79-2.837 1.3-0.931 2.758-1.737 4.371-2.42 1.612-0.683 3.38-1.177 5.302-1.489m-6.789-55.906c1.735 1.055 4.743 1.952 9.023 2.698-3.66 0.496-7.164 1.289-10.512 2.373-3.349 1.09-6.497 2.282-9.442 3.584-2.945 1.304-5.597 2.685-7.952 4.143-2.357 1.46-4.373 2.814-6.046 4.053-0.372 0.248-0.73 0.527-1.07 0.836-0.343 0.313-0.699 0.59-1.07 0.838-0.185-0.493-0.278-0.964-0.278-1.397 0.061-2.232 0.897-4.265 2.511-6.1 1.611-1.828 3.72-3.473 6.325-4.933s5.518-2.701 8.745-3.723c3.222-1.024 6.478-1.815 9.766-2.372m-55.437 39.913c-0.87-0.497-1.707-1.086-2.514-1.767 2.419-0.248 4.808-0.775 7.165-1.582-0.744 0.557-1.505 1.117-2.28 1.677-0.778 0.556-1.566 1.113-2.371 1.672m-10.885-15.255c0 2.111 0.308 4.155 0.93 6.14 0.62 1.985 1.458 3.783 2.513 5.394-1.799-0.495-3.473-1.44-5.023-2.835-1.551-1.399-2.325-3.086-2.325-5.071 0-1.425 0.418-2.79 1.254-4.091 0.839-1.304 1.877-2.203 3.117-2.699-0.311 0.868-0.466 1.922-0.466 3.162m108.62 49.161c2.809-0.799 5.341-1.897 7.586-3.288 3.411-2.115 6.203-4.643 8.371-7.592 2.169-2.951 3.779-6.182 4.834-9.693 1.052-3.51 1.609-7.032 1.672-10.569 0.061-4.659-0.915-9.212-2.931-13.654-2.015-4.441-4.802-8.399-8.369-11.877-3.565-3.475-7.75-6.27-12.557-8.385-4.803-2.109-9.997-3.168-15.577-3.168-2.729 0-5.566 0.034-8.511 0.091-2.945 0.065-5.922 0.315-8.928 0.746-3.008 0.435-5.999 1.147-8.975 2.141-2.976 0.993-5.859 2.417-8.649 4.28-4.465 2.912-8.79 6.028-12.974 9.346-4.187 3.316-8.076 6.37-11.673 9.162-3.596 2.791-6.805 5.117-9.626 6.976-2.822 1.863-5.1 2.791-6.835 2.791-0.683 0-1.334-0.09-1.954-0.279 3.967-3.508 8.09-6.913 12.371-10.209 4.277-3.297 8.618-6.549 13.02-9.754 0.494 0.618 1.053 0.929 1.673 0.929 1.056 0 1.985-0.343 2.791-1.031l-1.395-0.466c-0.123 0.188-0.297 0.31-0.513 0.372-0.216 0.06-0.388 0.094-0.512 0.094-0.309 0-0.619-0.221-0.928-0.654 0.991-0.743 1.967-1.475 2.929-2.191 0.96-0.714 1.968-1.442 3.024-2.191 2.54-1.864 5.1-3.51 7.673-4.939 2.571-1.432 5.331-2.658 8.277-3.685 2.943-1.023 6.122-1.818 9.532-2.374 3.411-0.563 7.256-0.904 11.534-1.025 2.479 0.299 5.24 0.596 8.277 0.895 3.038 0.293 6.418 0.622 10.138 0.975l0.466-1.461c-1.18-0.486-3.21-0.834-6.093-1.049-2.882-0.211-5.968-0.438-9.254-0.686l-0.279-0.182c-0.622-0.058-1.226-0.09-1.814-0.09h-1.815c-2.48-0.244-4.866-0.577-7.161-1.002-2.294-0.424-4.279-0.969-5.951-1.638 1.611-0.246 3.162-0.396 4.649-0.456 1.489-0.06 2.914-0.091 4.279-0.091 4.216 0.061 8.2 0.574 11.95 1.53 3.751 0.967 7.612 2.067 11.58 3.308l-0.091-1.489c-3.907-1.179-7.922-2.359-12.046-3.546-4.124-1.18-8.356-1.773-12.695-1.773-3.225 0-6.695 0.28-10.417 0.835-1.177-0.99-1.799-2.103-1.86-3.341-0.126-1.735 0.526-3.437 1.952-5.111 1.428-1.672 3.163-2.536 5.209-2.595 0.683 0 1.427 0.078 2.234 0.23 0.804 0.153 1.563 0.384 2.278 0.693 0.712 0.313 1.3 0.732 1.766 1.259 0.465 0.527 0.699 1.101 0.699 1.72 0 0.31-0.063 0.634-0.187 0.975-0.124 0.342-0.25 0.669-0.372 0.98l1.49 1.395c0.308-0.374 0.554-0.886 0.741-1.537 0.187-0.649 0.28-1.224 0.28-1.722 0-0.68-0.311-1.359-0.929-2.045-0.622-0.679-1.381-1.265-2.28-1.751-0.899-0.484-1.875-0.873-2.928-1.167-1.054-0.293-2.016-0.443-2.884-0.443-1.676 0-3.056 0.307-4.14 0.923-1.086 0.616-1.969 1.4-2.65 2.354-0.682 0.952-1.146 2-1.395 3.137-0.247 1.135-0.371 2.229-0.371 3.276 0 1.289 0.308 2.369 0.931 3.236-3.227 0.622-6.434 1.474-9.627 2.558-3.195 1.086-6.061 2.4-8.605 3.95-2.542 1.547-4.588 3.327-6.137 5.344-1.55 2.012-2.325 4.259-2.325 6.738 0 0.742 0.154 1.576 0.464 2.509-1.798 1.421-3.58 2.819-5.347 4.182-1.767 1.36-3.551 2.725-5.347 4.088-0.683-0.25-1.382-0.557-2.094-0.929-0.714-0.373-1.505-0.556-2.372-0.556-0.496 0-1.179 0.137-2.046 0.415-0.868 0.279-1.147 0.636-0.836 1.07 0.371 0.494 0.524 0.946 0.464 1.348-0.061 0.401-0.248 0.605-0.557 0.605-0.62 0-1.178-0.094-1.675-0.28-0.495-0.188-0.713-0.475-0.65-0.868 0-0.169 0.092-0.388 0.277-0.654 0.187-0.265 0.249-0.497 0.187-0.696-0.124-0.519-0.683-0.842-1.674-0.964-0.311-0.063-0.589 0.08-0.837 0.433-0.248 0.352-0.371 0.696-0.371 1.029 0.061 0.893 0.293 1.696 0.696 2.41 0.403 0.716 0.946 1.074 1.629 1.074 1.24 0 2.511-0.175 3.813-0.515 1.3-0.341 2.573-0.698 3.813-1.068-0.805 0.68-1.659 1.332-2.558 1.951-0.899 0.622-1.783 1.271-2.65 1.954-1.985 1.117-4.11 1.908-6.372 2.37-2.263 0.467-4.541 0.73-6.835 0.791-1.239-1.422-2.249-3.053-3.024-4.881-0.775-1.832-1.161-3.742-1.161-5.733 0-1.488 0.335-2.977 1.006-4.466 0.732 0.25 1.371 0.651 1.92 1.21s0.824 1.023 0.824 1.395c0 0.622-0.234 1.054-0.704 1.302-0.468 0.248-0.703 0.65-0.703 1.208 0 0.333 0.124 0.681 0.376 1.047 0.248 0.364 0.53 0.549 0.842 0.549 0.689 0 1.314-0.297 1.875-0.891 0.565-0.594 0.844-1.299 0.844-2.109 0-1.065-0.431-2.096-1.294-3.095-0.864-1-1.85-1.749-2.959-2.249 1.048-1.375 2.28-2.032 3.698-1.972 1.301 0.064 2.525 0.404 3.672 1.024 1.147 0.622 2.341 1.287 3.58 1.999 1.24 0.714 2.589 1.365 4.047 1.956 1.456 0.588 3.148 0.883 5.07 0.883 0.991 0 2.076-0.264 3.254-0.791 1.179-0.528 2.249-1.196 3.209-2.001 0.962-0.807 1.737-1.658 2.327-2.56 0.588-0.902 0.821-1.727 0.697-2.476l-1.954 0.938c0.063 0.313-0.093 0.638-0.464 0.98-0.372 0.344-0.715 0.515-1.023 0.515-1.305 0-2.576-0.344-3.815-1.031-1.24-0.685-2.465-1.434-3.673-2.246-1.21-0.811-2.435-1.547-3.675-2.204-1.239-0.655-2.542-0.952-3.905-0.891-3.227 0.128-6.089 0.877-8.59 2.25-2.5 1.376-4.368 3.127-5.599 5.251-0.864 0.188-1.665 0.595-2.404 1.219-0.74 0.625-1.403 1.36-1.99 2.203-0.584 0.844-1.032 1.735-1.341 2.672-0.305 0.938-0.46 1.813-0.46 2.626 0 1.421 0.291 2.75 0.873 3.99 0.584 1.235 1.334 2.318 2.253 3.248 0.919 0.927 1.945 1.653 3.081 2.18 1.133 0.529 2.281 0.793 3.448 0.793h0.093c1.178 1.357 2.512 2.5 4 3.432-1.677 0.865-3.528 1.887-5.556 3.062-2.029 1.175-3.87 1.763-5.525 1.763-0.492 0-1.044-0.078-1.656-0.23-0.612-0.16-0.95-0.388-1.011-0.699-0.065-0.251 0.09-0.468 0.462-0.653 0.374-0.185 0.529-0.433 0.468-0.742-0.124-0.743-0.565-1.119-1.32-1.119-0.649 0-1.169 0.236-1.558 0.699-0.39 0.465-0.585 0.915-0.585 1.351 0 1.055 0.575 1.707 1.72 1.955 1.149 0.25 2.343 0.376 3.583 0.376 0.68 0 1.392-0.062 2.138-0.184 0.744-0.126 1.458-0.282 2.141-0.467-2.422 1.413-5.025 2.594-7.813 3.544-2.79 0.945-5.516 1.42-8.178 1.42-2.414 0-4.49-0.372-6.225-1.118-1.735-0.744-3.189-1.686-4.366-2.834-1.176-1.146-2.043-2.432-2.601-3.857-0.556-1.428-0.836-2.852-0.836-4.276 0-2.416 0.897-4.713 2.691-6.878 1.797-2.173 4.364-3.288 7.707-3.351 1.857 0 3.343 0.25 4.454 0.753 1.114 0.504 1.981 1.15 2.601 1.935 0.62 0.784 1.021 1.634 1.206 2.545 0.187 0.911 0.279 1.779 0.279 2.593 0 0.691-0.137 1.449-0.415 2.264-0.275 0.818-0.674 1.574-1.196 2.265-0.521 0.692-1.135 1.271-1.842 1.743-0.706 0.472-1.487 0.706-2.347 0.706-0.981 0-1.947-0.468-2.899-1.41-0.95-0.945-1.427-1.982-1.427-3.113 0-0.443 0.079-0.885 0.23-1.324 0.158-0.44 0.234-0.879 0.234-1.318 0-0.251-0.11-0.567-0.334-0.944-0.224-0.378-0.456-0.708-0.698-0.99-0.238-0.281-0.471-0.438-0.691-0.472-0.218-0.032-0.33 0.143-0.33 0.519 0 0.378 0.094 0.581 0.279 0.614 0.187 0.03 0.279 0.236 0.279 0.61 0 0.441-0.155 1.008-0.468 1.7-0.313 0.69-0.47 1.257-0.47 1.699 0 1.946 0.617 3.393 1.847 4.337 1.23 0.942 2.493 1.445 3.786 1.507 0.922 0 1.863-0.234 2.815-0.702 0.954-0.469 1.8-1.111 2.538-1.923 0.739-0.811 1.359-1.701 1.859-2.671 0.501-0.971 0.749-1.923 0.749-2.859 0-0.813-0.168-1.769-0.511-2.861-0.339-1.091-0.85-2.14-1.532-3.139-0.683-1-1.549-1.828-2.603-2.485-1.055-0.657-2.263-0.984-3.626-0.984-2.603 0-4.787 0.339-6.556 1.019-1.764 0.681-3.173 1.562-4.228 2.642-1.054 1.082-1.798 2.336-2.231 3.756-0.434 1.421-0.651 2.906-0.651 4.45 0 1.735 0.358 3.434 1.07 5.104 0.715 1.669 1.708 3.153 2.977 4.448 1.273 1.301 2.825 2.335 4.655 3.108 1.832 0.774 3.862 1.161 6.095 1.161 2.298 0 4.623-0.311 6.98-0.928 2.359-0.62 4.653-1.425 6.888-2.416 2.233-0.99 4.357-2.133 6.374-3.433 2.015-1.299 3.862-2.66 5.539-4.085 1.115 0.494 2.278 0.898 3.487 1.208 1.211 0.311 2.436 0.466 3.676 0.466 3.97 0.061 7.909-0.635 11.816-2.095 3.907-1.456 7.693-3.364 11.352-5.719s7.196-5.023 10.608-7.998c3.411-2.976 6.606-5.986 9.583-9.024 3.909-3.966 8.141-6.744 12.701-8.325 4.558-1.58 9.444-2.371 14.656-2.371 9.925 0.06 17.554 3.389 22.888 9.98 5.335 6.599 7.91 15.769 7.722 27.52-0.063 2.549-0.563 5.113-1.5 7.692-0.938 2.579-2.275 4.94-4.013 7.087-1.737 2.141-3.86 3.942-6.372 5.398-2.515 1.46-5.383 2.345-8.605 2.654-1.118-1.364-2.251-2.729-3.398-4.094-1.149-1.365-2.249-2.703-3.303-4.002 1.054 0.556 2.14 1.085 3.256 1.582 1.117 0.498 2.264 0.746 3.445 0.746 1.611 0 2.835-0.547 3.673-1.637 0.837-1.089 1.257-2.162 1.257-3.214 0-0.437-0.124-0.853-0.372-1.256-0.25-0.405-0.777-0.668-1.582-0.793 0.311 1.057 0.278 2.138-0.094 3.259-0.372 1.113-1.426 1.64-3.162 1.584-1.676-0.066-3.242-0.576-4.7-1.538-1.458-0.961-2.963-1.78-4.511-2.462-0.498-0.497-0.87-0.838-1.118-1.024 0.557-0.991 1.008-2.063 1.348-3.205 0.342-1.148 0.514-2.401 0.514-3.767-0.061-4.214-1.086-7.777-3.072-10.689-1.985-2.912-4.59-4.865-7.814-5.856 3.1-2.727 6.327-4.089 9.676-4.089 1.737 0 3.427 0.433 5.071 1.3 1.643 0.868 2.466 2.229 2.466 4.092 0 1.608-0.343 3.205-1.025 4.785-0.683 1.58-0.992 3.18-0.929 4.79 0.122 2.169 0.899 4.165 2.326 5.994 1.426 1.83 3.1 2.805 5.024 2.931 0.744 0.057 1.411-0.081 1.999-0.423 0.588-0.338 1.226-0.85 1.908-1.533-1.054-0.248-2.048-0.417-2.977-0.512-0.932-0.093-1.396-0.727-1.396-1.904 0-1.552 0.216-3.027 0.651-4.421 0.435-1.398 0.682-2.806 0.745-4.233 0-2.731-0.371-4.946-1.117-6.652-0.743-1.704-1.737-3.04-2.976-4.001-1.242-0.96-2.652-1.643-4.234-2.044-1.584-0.406-3.211-0.609-4.885-0.609-1.922 0-4.234 0.449-6.931 1.342-2.698 0.896-5.102 2.393-7.211 4.492h-0.372c-1.178 0-2.403 0.305-3.677 0.924-1.27 0.618-2.434 1.433-3.488 2.452s-1.908 2.126-2.559 3.334c-0.652 1.2-0.976 2.393-0.976 3.571 0 0.744 0.23 1.456 0.696 2.139 0.467 0.683 0.699 1.399 0.699 2.143 0 0.432-0.063 0.894-0.185 1.392-0.124 0.494-0.219 0.991-0.282 1.49 0.87-0.126 1.397-0.374 1.584-0.745 0.185-0.375 0.311-0.776 0.372-1.209 0.061-1.054-0.216-2.19-0.838-3.396-0.622-1.21-0.838-2.341-0.651-3.396 0.124-0.682 0.45-1.38 0.977-2.094 0.528-0.713 1.179-1.396 1.954-2.045 0.775-0.651 1.613-1.208 2.513-1.674 0.898-0.467 1.752-0.758 2.557-0.881-0.929 1.237-1.674 2.663-2.233 4.276-0.559 1.612-0.836 3.418-0.836 5.418 0 2.564 0.216 4.842 0.651 6.843-4.901 0.186-9.274 1.363-13.12 3.534-0.124-0.249-0.248-0.464-0.372-0.649-0.404-0.603-0.401-0.63-0.931-1.675-1.239-2.471-1.859-4.944-1.859-7.415 0-3.95 0.836-7.702 2.512-11.253 1.675-3.55 3.876-6.721 6.605-9.511-0.495 1.244-0.823 2.501-0.976 3.776-0.155 1.273-0.264 2.503-0.327 3.679 0 0.622 0.217 1.253 0.652 1.908 0.432 0.649 1.115 1.008 2.048 1.069 0.433 0 0.744-0.264 0.93-0.791 0.185-0.527 0.28-0.915 0.28-1.161 0-0.188-0.124-0.313-0.372-0.376-0.25-0.061-0.514-0.107-0.793-0.14-0.279-0.029-0.543-0.103-0.791-0.228s-0.403-0.373-0.464-0.743c-0.063-0.311 0.171-0.545 0.698-0.701 0.528-0.155 0.758-0.387 0.697-0.698-0.187-1.312-0.124-2.637 0.187-3.972 0.311-1.336 0.635-2.33 0.978-2.979 0.338-0.651 0.588-0.777 0.743-0.376 0.156 0.403 0.014 1.694-0.419 3.862 0.311 0.311 0.805 0.528 1.487 0.65 0.683 0.125 1.334-0.091 1.956-0.65 0.494-0.434 0.897-0.915 1.21-1.442 0.309-0.527 0.401-1.131 0.279-1.814-0.807-0.433-1.365-0.975-1.676-1.625-0.311-0.653-0.62-1.318-0.931-2 2.855-1.984 5.893-3.538 9.117-4.65 3.227-1.119 6.388-1.676 9.493-1.676 4.464 0 8.418 0.728 11.861 2.184 3.443 1.46 6.343 3.533 8.7 6.232 2.357 2.7 4.139 5.976 5.352 9.829 1.21 3.857 1.814 8.212 1.814 13.068h1.394c0-5.664-0.667-10.547-2.001-14.65-1.334-4.101-3.256-7.487-5.766-10.155-2.515-2.666-5.536-4.644-9.074-5.951-3.535-1.303-7.442-1.951-11.723-1.951-3.597 0-7.258 0.603-10.978 1.813-3.723 1.21-7.228 2.961-10.514 5.253-4.033 2.418-7.598 5.538-10.699 9.363-3.104 3.821-6.02 7.785-8.746 11.893-1.055 1.554-2.172 3.092-3.351 4.619-1.179 1.523-2.388 2.893-3.628 4.102-1.241 1.21-2.512 2.17-3.815 2.883-1.304 0.713-2.604 1.072-3.909 1.072-0.93 0-1.908-0.329-2.929-0.978-1.026-0.651-1.537-1.472-1.537-2.466 0-0.248-0.063-0.558-0.185-0.928-0.126-0.374-0.342-0.559-0.651-0.559-0.807 0.062-1.257 0.289-1.349 0.694-0.095 0.398-0.141 0.815-0.141 1.249 0 0.615 0.217 1.201 0.652 1.758 0.433 0.555 0.978 1.031 1.627 1.434 0.651 0.399 1.349 0.725 2.095 0.97 0.744 0.248 1.427 0.374 2.046 0.374 1.429-0.065 2.855-0.464 4.281-1.206 1.426-0.74 2.884-1.788 4.374-3.144-2.855 4.192-5.755 7.741-8.7 10.648-2.949 2.903-6.282 4.324-10.004 4.265-2.046 0-3.488-0.482-4.326-1.444-0.838-0.96-1.442-2.03-1.814-3.207-0.372-1.179-0.714-2.251-1.023-3.213-0.311-0.96-0.931-1.441-1.861-1.441-0.433 0-0.805 0.141-1.116 0.42-0.311 0.278-0.637 0.588-0.978 0.929-0.34 0.342-0.667 0.668-0.978 0.978-0.309 0.31-0.682 0.498-1.115 0.556-0.559 0.065-1.118 0.065-1.676 0-0.557-0.058-0.868-0.37-0.929-0.928h-1.023c-0.187 2.171 0.657 3.319 2.53 3.443 0.807 0 1.442-0.124 1.907-0.372 0.466-0.25 0.869-0.529 1.21-0.838 0.34-0.312 0.664-0.608 0.975-0.884 0.311-0.279 0.715-0.421 1.21-0.421 0.37 0 0.541 0.433 0.51 1.305-0.032 0.867 0.124 1.796 0.466 2.789 0.341 0.992 1.037 1.889 2.092 2.697 1.056 0.803 2.881 1.144 5.486 1.02 3.286-0.122 6.263-1.177 8.929-3.157 2.665-1.988 5.268-4.512 7.812-7.583 2.542-3.072 5.129-6.539 7.765-10.419 2.635-3.872 5.533-7.764 8.696-11.671-0.683 1.733-1.242 3.533-1.674 5.396-0.435 1.858-0.652 3.812-0.652 5.86 0 1.365 0.217 2.773 0.652 4.229 0.21 0.708 0.452 1.411 0.721 2.096 2.893 7.07 8.183 10.971 8.183 10.971l0.032 0.078c1.127 0.859 2.289 1.568 3.502 2.138 1.642 0.773 3.24 1.162 4.792 1.162 0.99 0 1.997-0.046 3.022-0.137 1.021-0.095 2.06-0.295 3.114-0.606 2.109 2.851 4.575 5.188 7.396 7.016 0.661 0.427 1.322 0.82 1.995 1.179l1.847 0.754c8.989 3.729 18.907 0.623 18.907 0.623z" fill="#004ea2" fill-rule="evenodd"/></g><g transform="translate(562.15 603.64)"><path d="m0 0c-3.468 1.207-7.269 1.674-11.406 1.409-4.139-0.263-8.489-1.545-13.058-3.834 1.432 0.221 2.976 0.547 4.629 0.987 1.656 0.432 3.48 0.838 5.476 1.209s4.191 0.623 6.587 0.748c2.395 0.127 4.987-0.047 7.772-0.519m-20.478-14.279c-1.456-0.931-2.613-2.377-3.472-4.346-0.856-1.969-1.261-3.892-1.217-5.77 3.13 1.634 6.582 3.083 10.355 4.352 3.774 1.267 7.553 1.999 11.34 2.196-1.785 2.342-4.208 4.022-7.262 5.034-3.05 1.007-6.3 0.522-9.744-1.466m5.003-18.12c-0.909-0.526-1.899-0.729-2.965-0.608-1.067 0.122-2.095 0.437-3.083 0.951-0.991 0.513-1.904 1.157-2.74 1.931s-1.497 1.584-1.984 2.428l-0.225 0.389c-1.59-1.003-3.132-2.046-4.631-3.128-1.497-1.081-2.918-2.184-4.263-3.304 1.256-1.878 2.865-3.614 4.827-5.212s4.13-2.839 6.502-3.721c2.374-0.886 4.879-1.281 7.512-1.189 2.632 0.091 5.218 0.867 7.753 2.33 1.364 0.788 2.741 1.93 4.13 3.425-0.448 0.175-0.863 0.37-1.246 0.583-0.383 0.212-0.686 0.513-0.911 0.902-0.562 0.973-0.881 1.939-0.954 2.893-0.077 0.954-0.21 1.897-0.399 2.827 3.655-1.53 5.724-1.809 6.204-0.84-0.134 0.528-0.299 1.043-0.498 1.535-0.197 0.491-0.426 0.966-0.688 1.42-0.339 0.586-0.887 0.748-1.644 0.484-0.758-0.266-1.36-9e-3 -1.811 0.773-0.188 0.324-0.235 0.666-0.139 1.024 0.097 0.359 0.305 0.635 0.631 0.822 0.585 0.338 1.238 0.257 1.958-0.237 0.719-0.493 1.265-1.066 1.64-1.718 0.75-1.298 1.291-2.68 1.612-4.14 0.596 1.818 0.805 3.78 0.629 5.889-0.178 2.108-0.905 4.267-2.18 6.478l-0.057 0.098c-3.966-0.038-7.872-0.774-11.719-2.213-3.847-1.444-7.381-3.05-10.603-4.825 0.246-0.724 0.463-1.251 0.649-1.573 0.601-1.042 1.665-1.794 3.189-2.257 1.523-0.464 2.642-0.488 3.356-0.076 0.91 0.526 2.076 0.87 3.493 1.042 1.421 0.164 2.374-0.17 2.862-1.015 0.263-0.456 0.424-1.034 0.483-1.737s-0.3-1.279-1.08-1.729c0.071 0.474 0.019 0.9-0.156 1.278-0.173 0.375-0.354 0.728-0.543 1.054-0.224 0.386-0.651 0.376-1.282-0.03-0.632-0.408-1.174-0.743-1.629-1.004m35.911 1.459c1.014-1.756 1.723-3.549 2.138-5.389 0.41-1.839 0.57-3.65 0.477-5.44 0.366 2.816 0.083 5.592-0.854 8.342-0.934 2.743-1.97 5.175-3.104 7.291-3.238 5.757-7.088 9.946-11.547 12.571-4.461 2.624-9.176 4.19-14.149 4.698-4.972 0.506-10.053 0.15-15.241-1.068-5.189-1.219-10.078-2.805-14.667-4.762-1.179-2.761-1.82-5.664-1.923-8.712-0.101-3.052 0.533-5.915 1.903-8.588 1.474 1.2 2.988 2.33 4.535 3.4 1.551 1.067 3.138 2.071 4.764 3.009-0.747 2.343-0.595 4.593 0.45 6.761 1.05 2.161 2.773 3.938 5.178 5.327 2.599 1.5 4.992 2.382 7.178 2.648s4.168 0.132 5.947-0.396c1.783-0.535 3.354-1.38 4.718-2.541 1.363-1.163 2.528-2.504 3.494-4.025 3.846-0.211 7.592-1.295 11.24-3.262 3.648-1.968 6.802-5.256 9.463-9.864m-97.225 11.312c-2.014-1.162-3.55-2.7-4.612-4.616 3.055-0.487 6.348-0.56 9.87-0.213 3.528 0.347 7.157 1.038 10.895 2.066l-0.281 0.489c-0.562 0.972-1.494 1.76-2.791 2.355-1.296 0.594-2.723 1.002-4.282 1.228-1.558 0.226-3.122 0.236-4.692 0.021-1.567-0.211-2.936-0.654-4.107-1.33m37.245-14.53c-1.651 2.858-2.482 5.8-2.496 8.826-0.015 3.025 0.551 5.95 1.691 8.774-0.362-0.123-0.715-0.261-1.061-0.415-0.343-0.157-0.676-0.326-1.002-0.513-2.674-1.372-5.291-2.58-7.85-3.624-2.561-1.045-5.043-1.962-7.451-2.742 0.109-1.239-0.165-2.417-0.821-3.532-0.657-1.116-1.368-2.133-2.136-3.05-0.768-0.919-1.461-1.668-2.085-2.244-0.619-0.575-0.873-0.96-0.762-1.153 0.198-0.492 0.603-0.821 1.218-0.987 0.615-0.164 1.166-0.367 1.65-0.607-2.376-1.286-3.976-1.216-4.803 0.216-0.412 0.715-0.365 1.459 0.143 2.228 0.511 0.769 1.142 1.587 1.896 2.457 0.756 0.87 1.482 1.785 2.179 2.753 0.698 0.968 1.064 2.022 1.095 3.17-8.561-2.429-15.957-2.974-22.191-1.636-0.66-1.856-0.872-3.78-0.637-5.764 0.238-1.983 0.825-3.79 1.762-5.413 1.801-3.119 4.085-5.311 6.85-6.575 2.766-1.264 5.683-1.853 8.755-1.77 3.069 0.086 6.129 0.641 9.178 1.664 3.048 1.024 5.806 2.247 8.276 3.673 1.561 0.901 3.069 1.853 4.519 2.867 1.452 1.01 2.87 2.046 4.252 3.105zm61.66-12.522-1.287 0.428c0.632 2.358 0.777 4.845 0.436 7.464-0.343 2.619-1.096 4.934-2.259 6.948-2.44 4.226-5.245 7.285-8.418 9.179-3.172 1.893-6.502 3.005-9.983 3.336 1.249-2.316 1.869-4.664 1.861-7.051-9e-3 -2.389-0.411-4.655-1.207-6.806-0.795-2.149-1.931-4.083-3.407-5.803-1.476-1.719-3.094-3.083-4.847-4.096-2.964-1.624-5.964-2.58-9.007-2.863-3.043-0.282-5.949-0.052-8.713 0.689-2.767 0.739-5.338 1.926-7.703 3.548-2.367 1.622-4.337 3.497-5.909 5.619-1.411-1.158-2.832-2.262-4.266-3.306-1.432-1.044-2.929-2.014-4.49-2.916-2.73-1.575-5.734-2.856-9.022-3.845-3.284-0.988-6.536-1.432-9.753-1.341-3.215 0.093-6.282 0.901-9.196 2.42-2.915 1.526-5.419 4.022-7.511 7.494-1.039 1.652-1.689 3.528-1.952 5.633-0.259 2.102-0.061 4.159 0.595 6.173-6.535 1.716-11.537 5.652-15.003 11.805-2.25 3.897-3.01 7.466-2.281 10.702 0.731 3.239 2.623 5.74 5.677 7.502 1.3 0.75 2.954 1.338 4.962 1.76 2.01 0.424 3.439 0.275 4.289-0.446l-0.173-2.18c-1.103 1.01-2.488 1.311-4.164 0.908-1.674-0.401-3.096-0.939-4.266-1.615-2.469-1.425-3.946-3.818-4.435-7.175-0.488-3.355 0.132-6.531 1.858-9.518 1.612-2.794 3.66-4.988 6.14-6.586 2.486-1.604 5.291-2.709 8.419-3.327 0.548 1.004 1.206 1.927 1.977 2.763 0.777 0.836 1.746 1.593 2.916 2.269 1.431 0.826 3.046 1.517 4.844 2.08 1.799 0.563 3.588 0.84 5.37 0.828s3.487-0.414 5.113-1.203c1.628-0.796 3.005-2.166 4.131-4.116l0.223-0.387c1.683 0.538 3.347 1.106 4.992 1.711 1.645 0.603 3.303 1.257 4.975 1.964-1.934-0.253-3.792-0.15-5.573 0.308-1.781 0.457-3.044 1.333-3.796 2.634-0.375 0.651-0.635 1.475-0.778 2.474-0.145 1.002 0.106 1.69 0.756 2.066 0.196 0.114 0.501 0.223 0.916 0.331 0.412 0.108 0.751-0.065 1.014-0.52 0.301-0.522 0.173-1.091-0.378-1.711-0.55-0.621-0.62-1.287-0.205-2.006 0.263-0.455 0.603-0.82 1.023-1.097 0.325 0.188 0.659 0.358 1.003 0.514 0.343 0.157 0.8 0.267 1.367 0.335 0.94 0.022 1.867-0.158 2.781-0.539 0.913-0.382 1.818-0.748 2.715-1.099 0.164 0.01 0.347 0.031 0.55 0.057 0.198 0.031 0.383 0.048 0.548 0.063-0.559 0.365-1.12 0.777-1.686 1.234-0.566 0.453-1.016 0.972-1.353 1.555-0.45 0.78-0.124 1.488 0.981 2.125 0.909 0.526 1.93 0.747 3.059 0.667 1.131-0.084 2.312-0.291 3.543-0.621-0.703-1.186-0.795-2.452-0.275-3.797 0.494 0.194 0.976 0.407 1.447 0.639 0.473 0.232 0.99 0.464 1.549 0.697 2.086 3.889 4.811 7.199 8.181 9.921-1.893 0.726-3.473 2.111-4.735 4.149-1.079 1.716-1.544 3.346-1.402 4.901 0.146 1.55 1.191 2.891 3.141 4.017 0.973 0.561 2.039 0.853 3.198 0.871 1.16 0.023 2.244 0.281 3.254 0.782 0.391 0.226 0.612 0.481 0.663 0.769 0.05 0.29 0.039 0.605-0.032 0.955-0.072 0.346-0.116 0.645-0.13 0.898-0.014 0.251 0.107 0.452 0.368 0.603 0.519 0.299 1.064 0.446 1.635 0.43 0.567-7e-3 0.981-0.235 1.238-0.68 0.45-0.927 0.378-1.817-0.215-2.666-0.594-0.851-1.227-1.515-1.904-1.992-1.2-0.775-2.374-1.031-3.524-0.762-1.152 0.268-2.216 0.122-3.189-0.441-1.431-0.825-2.104-1.873-2.025-3.137 0.083-1.271 0.419-2.411 1.005-3.428 0.639-1.106 1.333-1.936 2.091-2.498 0.756-0.558 1.546-0.949 2.364-1.164 0.355 0.285 0.725 0.545 1.115 0.77 0.389 0.225 0.747 0.431 1.073 0.619 6.432 3.714 12.693 5.248 18.784 4.606 6.09-0.643 11.568-2.552 16.432-5.721l0.896-0.653c5.368-3.746 9.524-8.322 12.471-13.723 2.608-4.82 4.209-9.917 4.8-15.294 0.591-5.378-0.323-10.545-2.75-15.495l-1.049 0.693c2.006 4.626 2.882 9.225 2.626 13.796-0.259 4.574-1.8 9.384-4.626 14.426-1.612 2.794-3.555 5.484-5.83 8.072-2.272 2.584-4.81 4.804-7.608 6.652-3.544 1.335-6.978 1.994-10.307 1.979-3.326-0.017-6.495-0.266-9.51-0.747-3.012-0.487-5.83-1.009-8.453-1.569-2.623-0.559-4.998-0.72-7.132-0.478-1.393-0.889-2.68-2.002-3.86-3.333-1.181-1.33-2.23-2.777-3.144-4.345 4.629 1.886 9.472 3.365 14.536 4.425 5.062 1.06 10.043 1.291 14.937 0.695 4.892-0.598 9.583-2.267 14.067-5.004 4.484-2.741 8.448-7.019 11.887-12.827 1.867-3.081 3.163-6.492 3.894-10.231 0.727-3.739 0.235-7.577-1.477-11.511l-0.281 0.488z" fill="#004ea2" fill-rule="evenodd"/></g><g transform="translate(230.04 241.07)"><path d="m0 0c0 2.243-0.282 3.904-0.845 4.982-0.564 1.079-1.691 1.618-3.381 1.618h-0.604v1.979h26.625c3.42 0 5.132-1.76 5.132-5.279v-5.611h-1.811c0 2.728-0.635 4.73-1.902 6.006-1.268 1.276-3.15 1.914-5.645 1.914h-9.72v-16.5h15.697v-2.969h-15.697v-18.151h10.323c2.295 0 4.206 0.562 5.736 1.684 1.529 1.122 2.797 3.068 3.803 5.841l1.631-0.66-1.751-5.214c-0.524-1.584-1.147-2.75-1.872-3.498-0.724-0.749-1.851-1.122-3.381-1.122h-22.338z" fill="#004ea2"/></g><g transform="translate(291.26 212.99)"><path d="m0 0c2.012 3.497 3.019 8.458 3.019 14.883 0 6.424-1.007 11.385-3.019 14.883-2.013 3.498-4.851 5.247-8.513 5.247s-6.489-1.749-8.482-5.247c-1.992-3.498-2.988-8.459-2.988-14.883 0-6.425 0.996-11.386 2.988-14.883 1.993-3.498 4.82-5.247 8.482-5.247s6.5 1.749 8.513 5.247m-2.898-17.26c-4.428 2.113-8.392 5.479-11.894 10.099-4.186 1.407-7.506 4.101-9.961 8.085-2.455 3.981-3.683 8.635-3.683 13.959 0 4.311 0.825 8.226 2.476 11.748 1.649 3.519 3.994 6.291 7.033 8.315 3.038 2.024 6.51 3.036 10.414 3.036s7.366-1.012 10.385-3.036c3.018-2.024 5.352-4.796 7.003-8.315 1.65-3.522 2.476-7.437 2.476-11.748 0-5.501-1.268-10.253-3.804-14.256-2.536-4.005-5.977-6.666-10.324-7.986 0.684-2.068 1.801-3.971 3.351-5.709 1.549-1.738 3.269-3.113 5.162-4.125 1.891-1.012 3.682-1.519 5.373-1.519v-1.716c-4.911 0-9.58 1.057-14.007 3.168" fill="#004ea2"/></g><g transform="translate(310.03 225.1)"><path d="m0 0v15.973c0 2.243-0.282 3.904-0.845 4.982-0.564 1.078-1.691 1.617-3.381 1.617v1.98h6.641c1.449 0 2.556-0.264 3.321-0.792 0.764-0.528 1.307-1.397 1.63-2.607 0.321-1.211 0.483-2.937 0.483-5.18l0.06-17.952c0.04-4.666 0.876-8.284 2.506-10.858 1.629-2.574 3.994-3.861 7.093-3.861 4.106 0 7.095 1.331 8.966 3.993 1.872 2.662 2.807 6.897 2.807 12.705v24.552h3.019v-24.552c0-6.468-1.248-11.363-3.743-14.685-2.496-3.323-6.581-4.983-12.256-4.983-10.867 0-16.301 6.556-16.301 19.668" fill="#004ea2"/></g><g transform="translate(353.26 206.85)"><path d="m0 0c-0.765 0.506-1.309 1.363-1.63 2.574-0.323 1.21-0.483 2.959-0.483 5.247v34.98h7.848v-34.98c0-2.244 0.282-3.905 0.846-4.983 0.563-1.078 1.69-1.616 3.38-1.616h0.604v-1.981h-7.245c-1.448 0-2.556 0.253-3.32 0.759" fill="#004ea2"/></g><g transform="translate(378.74 246.68)"><path d="m0 0h-4.287c-2.255 0-3.975-0.616-5.162-1.848s-1.78-3.256-1.78-6.072h-1.812v5.61c0 3.52 1.71 5.28 5.132 5.28h28.375v-2.97h-12.618v-40.59h-7.848z" fill="#004ea2"/></g><g transform="translate(417.32 223.52)"><path d="m0 0-10.686 17.557c-1.208 1.89-2.526 3.541-3.955 4.949s-2.786 2.179-4.075 2.31v1.32h6.581c2.052 0 3.914-0.704 5.584-2.112 1.67-1.409 3.089-3.125 4.257-5.148l8.211-13.53 11.712 20.79h3.924l-13.704-24.354v-19.206h-7.849z" fill="#004ea2"/></g><g transform="translate(894.5 207.71)"><path d="m0 0c-2.93 1.957-5.161 4.63-6.694 8.019-1.535 3.387-2.301 7.215-2.301 11.484 0 4.399 0.845 8.415 2.536 12.045 1.69 3.63 4.021 6.489 6.99 8.58 2.969 2.089 6.282 3.135 9.94 3.135 3.46 0 6.349-0.495 8.671-1.486 2.319-0.989 4.088-2.276 5.308-3.86 0.708-1.013 1.141-2.267 1.298-3.762 0.156-1.497 0.236-3.587 0.236-6.27h-1.769c-0.748 4.048-2.124 7.128-4.13 9.24-2.005 2.111-4.621 3.168-7.845 3.168-4.011 0-7.177-1.584-9.497-4.752s-3.48-8.515-3.48-16.038c0-5.589 1.061-10.231 3.185-13.926 2.123-3.696 5.387-5.544 9.792-5.544 2.752 0 5.28 0.814 7.58 2.442s4.159 3.96 5.575 6.996l2.064-1.783c-1.888-3.695-4.169-6.391-6.843-8.084-2.675-1.694-6.056-2.542-10.145-2.542-4.051 0-7.541 0.981-10.471 2.938" fill="#004ea2"/></g><g transform="translate(928.8 225.1)"><path d="m0 0v15.973c0 2.243-0.275 3.904-0.826 4.982s-1.652 1.617-3.303 1.617v1.98h6.488c1.416 0 2.497-0.264 3.245-0.792 0.747-0.528 1.277-1.397 1.592-2.607 0.315-1.211 0.472-2.937 0.472-5.18l0.06-17.952c0.038-4.666 0.855-8.284 2.447-10.858 1.593-2.574 3.902-3.861 6.931-3.861 4.011 0 6.931 1.331 8.76 3.993 1.828 2.662 2.742 6.897 2.742 12.705v24.552h2.95v-24.552c0-6.468-1.219-11.363-3.658-14.685-2.438-3.323-6.428-4.983-11.973-4.983-10.618 0-15.927 6.556-15.927 19.668" fill="#004ea2"/></g><g transform="translate(981.18 228.67)"><path d="m0 0c2.202 0 4.079 0.736 5.634 2.211 1.553 1.474 2.329 3.795 2.329 6.963 0 3.124-0.767 5.433-2.3 6.93-1.534 1.495-3.324 2.244-5.368 2.244-1.141 0-2.025-0.089-2.654-0.264l-1.18-0.198v-17.886zm10.264-21.087c-1.77 1.429-3.618 3.904-5.545 7.425l-5.899 11.021h-2.359v-19.931h-7.728v34.98c0 2.243-0.275 3.904-0.825 4.983-0.552 1.078-1.652 1.617-3.304 1.617h-0.589v1.979h16.28c4.09 0 7.767-0.836 11.03-2.508 3.264-1.672 4.897-4.883 4.897-9.635 0-5.501-3.186-9.153-9.556-10.956l6.193-11.55c2.32-4.357 4.758-6.776 7.315-7.26v-1.65c-0.316-0.176-0.885-0.33-1.711-0.462s-1.593-0.198-2.301-0.198c-2.163 0-4.129 0.714-5.898 2.145" fill="#004ea2"/></g><g transform="translate(1017.5 228.67)"><path d="m0 0c2.202 0 4.079 0.736 5.634 2.211 1.553 1.474 2.329 3.795 2.329 6.963 0 3.124-0.767 5.433-2.3 6.93-1.534 1.495-3.324 2.244-5.368 2.244-1.141 0-2.025-0.089-2.654-0.264l-1.18-0.198v-17.886zm10.264-21.087c-1.77 1.429-3.618 3.904-5.545 7.425l-5.899 11.021h-2.359v-19.931h-7.728v34.98c0 2.243-0.275 3.904-0.825 4.983-0.552 1.078-1.652 1.617-3.304 1.617h-0.589v1.979h16.28c4.09 0 7.767-0.836 11.03-2.508 3.264-1.672 4.897-4.883 4.897-9.635 0-5.501-3.186-9.153-9.556-10.956l6.193-11.55c2.32-4.357 4.758-6.776 7.315-7.26v-1.65c-0.316-0.176-0.885-0.33-1.711-0.462s-1.593-0.198-2.301-0.198c-2.163 0-4.129 0.714-5.898 2.145" fill="#004ea2"/></g><g transform="translate(1042.6 241.07)"><path d="m0 0c0 2.243-0.275 3.904-0.825 4.982-0.552 1.079-1.653 1.618-3.304 1.618h-0.59v1.979h26.014c3.342 0 5.014-1.76 5.014-5.279v-5.611h-1.77c0 2.728-0.62 4.73-1.858 6.006-1.239 1.276-3.077 1.914-5.516 1.914h-9.496v-16.5h15.336v-2.969h-15.336v-18.151h10.086c2.242 0 4.109 0.562 5.604 1.684s2.733 3.068 3.716 5.841l1.593-0.66-1.711-5.214c-0.512-1.584-1.12-2.75-1.828-3.498-0.708-0.749-1.81-1.122-3.304-1.122h-21.825z" fill="#004ea2"/></g><g transform="translate(1081.1 238.76)"><path d="m0 0v-32.67h-2.95v35.64c0 1.848-0.404 3.301-1.209 4.356-0.807 1.056-2.173 1.584-4.1 1.584h-0.295v1.98h4.129c2.202 0 4.001-0.32 5.398-0.957 1.395-0.638 2.566-1.64 3.509-3.003l20.292-26.4v30.36h2.95v-43.758h-2.714z" fill="#004ea2"/></g><g transform="translate(1124.4 207.71)"><path d="m0 0c-2.93 1.957-5.161 4.63-6.694 8.019-1.535 3.387-2.301 7.215-2.301 11.484 0 4.399 0.845 8.415 2.536 12.045 1.69 3.63 4.021 6.489 6.99 8.58 2.969 2.089 6.282 3.135 9.94 3.135 3.46 0 6.349-0.495 8.671-1.486 2.319-0.989 4.088-2.276 5.308-3.86 0.708-1.013 1.141-2.267 1.298-3.762 0.156-1.497 0.236-3.587 0.236-6.27h-1.769c-0.748 4.048-2.124 7.128-4.13 9.24-2.005 2.111-4.621 3.168-7.845 3.168-4.011 0-7.177-1.584-9.497-4.752s-3.48-8.515-3.48-16.038c0-5.589 1.061-10.231 3.185-13.926 2.123-3.696 5.387-5.544 9.792-5.544 2.752 0 5.28 0.814 7.58 2.442s4.159 3.96 5.575 6.996l2.064-1.783c-1.888-3.695-4.169-6.391-6.843-8.084-2.675-1.694-6.056-2.542-10.145-2.542-4.051 0-7.541 0.981-10.471 2.938" fill="#004ea2"/></g><g transform="translate(1169.7 223.52)"><path d="m0 0-10.44 17.557c-1.18 1.89-2.468 3.541-3.864 4.949s-2.722 2.179-3.981 2.31v1.32h6.429c2.005 0 3.824-0.704 5.457-2.112 1.63-1.409 3.017-3.125 4.158-5.148l8.022-13.53 11.444 20.79h3.834l-13.39-24.354v-19.206h-7.669z" fill="#004ea2"/></g><g transform="translate(491.18 207.71)"><path d="m0 0c-2.934 1.957-5.167 4.63-6.703 8.019-1.535 3.387-2.302 7.215-2.302 11.484 0 4.399 0.845 8.415 2.539 12.045 1.692 3.63 4.025 6.489 6.997 8.58 2.972 2.089 6.289 3.135 9.95 3.135 3.464 0 6.358-0.495 8.681-1.486 2.322-0.989 4.094-2.276 5.315-3.86 0.709-1.013 1.141-2.267 1.299-3.762 0.157-1.497 0.236-3.587 0.236-6.27h-1.771c-0.749 4.048-2.126 7.128-4.134 9.24-2.008 2.111-4.627 3.168-7.854 3.168-4.016 0-7.185-1.584-9.507-4.752-2.324-3.168-3.484-8.515-3.484-16.038 0-5.589 1.063-10.231 3.189-13.926 2.125-3.696 5.393-5.544 9.802-5.544 2.755 0 5.285 0.814 7.588 2.442s4.163 3.96 5.58 6.996l2.067-1.783c-1.889-3.695-4.173-6.391-6.85-8.084-2.677-1.694-6.063-2.542-10.157-2.542-4.055 0-7.549 0.981-10.481 2.938" fill="#004ea2"/></g><g transform="translate(550.08 212.99)"><path d="m0 0c1.968 3.497 2.953 8.458 2.953 14.883 0 6.424-0.985 11.385-2.953 14.883-1.969 3.498-4.744 5.247-8.326 5.247-3.583 0-6.348-1.749-8.297-5.247s-2.923-8.459-2.923-14.883c0-6.425 0.974-11.386 2.923-14.883 1.949-3.498 4.714-5.247 8.297-5.247 3.582 0 6.357 1.749 8.326 5.247m-18.513-5.182c-2.972 2.024-5.265 4.796-6.879 8.317-1.615 3.519-2.421 7.435-2.421 11.748 0 4.311 0.806 8.226 2.421 11.748 1.614 3.519 3.907 6.291 6.879 8.315s6.368 3.036 10.187 3.036c3.818 0 7.204-1.012 10.157-3.036 2.952-2.024 5.235-4.796 6.85-8.315 1.613-3.522 2.421-7.437 2.421-11.748 0-4.313-0.808-8.229-2.421-11.748-1.615-3.521-3.898-6.293-6.85-8.317-2.953-2.023-6.339-3.036-10.157-3.036-3.819 0-7.215 1.013-10.187 3.036" fill="#004ea2"/></g><g transform="translate(604.2 206.46)"><path d="m0 0c-1.87 2.221-2.805 5.841-2.805 10.856v23.365l-12.932-34.584h-1.949l-15.826 35.904v-35.904h-2.952v43.559h7.204l14.291-32.405 12.105 32.405h7.736v-32.34c0-4.135 0.315-7.171 0.945-9.107 0.629-1.936 1.751-3.08 3.366-3.433v-1.649c-4.252 0-7.313 1.111-9.183 3.333" fill="#004ea2"/></g><g transform="translate(655.4 206.46)"><path d="m0 0c-1.87 2.221-2.805 5.841-2.805 10.856v23.365l-12.932-34.584h-1.949l-15.826 35.904v-35.904h-2.952v43.559h7.204l14.291-32.405 12.105 32.405h7.736v-32.34c0-4.135 0.315-7.171 0.945-9.107 0.629-1.936 1.751-3.08 3.366-3.433v-1.649c-4.252 0-7.313 1.111-9.183 3.333" fill="#004ea2"/></g><g transform="translate(695.35 212.99)"><path d="m0 0c1.968 3.497 2.953 8.458 2.953 14.883 0 6.424-0.985 11.385-2.953 14.883-1.969 3.498-4.744 5.247-8.326 5.247-3.583 0-6.348-1.749-8.297-5.247s-2.923-8.459-2.923-14.883c0-6.425 0.974-11.386 2.923-14.883 1.949-3.498 4.714-5.247 8.297-5.247 3.582 0 6.357 1.749 8.326 5.247m-18.513-5.182c-2.972 2.024-5.265 4.796-6.879 8.317-1.615 3.519-2.421 7.435-2.421 11.748 0 4.311 0.806 8.226 2.421 11.748 1.614 3.519 3.907 6.291 6.879 8.315s6.368 3.036 10.187 3.036c3.818 0 7.204-1.012 10.157-3.036 2.952-2.024 5.235-4.796 6.85-8.315 1.613-3.522 2.421-7.437 2.421-11.748 0-4.313-0.808-8.229-2.421-11.748-1.615-3.521-3.898-6.293-6.85-8.317-2.953-2.023-6.339-3.036-10.157-3.036-3.819 0-7.215 1.013-10.187 3.036" fill="#004ea2"/></g><g transform="translate(726.58 208.73)"><path d="m0 0c2.756 0 5.207 0.77 7.354 2.311 2.144 1.539 3.816 3.761 5.019 6.666 1.199 2.903 1.801 6.291 1.801 10.164 0 3.828-0.602 7.182-1.801 10.064-1.203 2.882-2.885 5.115-5.051 6.699-2.164 1.584-4.644 2.376-7.439 2.376h-0.473c-1.299 0-2.342-0.089-3.129-0.263l-1.301-0.199v-37.356l1.301-0.264c0.826-0.132 1.869-0.198 3.129-0.198zm-12.695 32.341c0 2.243-0.277 3.904-0.827 4.982-0.552 1.078-1.654 1.617-3.307 1.617h-0.591v1.98h16.063c7.951 0 14.003-1.881 18.158-5.643 4.152-3.761 6.23-9.053 6.23-15.873 0-4.355-0.877-8.195-2.629-11.516-1.752-3.324-4.349-5.908-7.795-7.755-3.445-1.849-7.587-2.773-12.429-2.773h-12.873z" fill="#004ea2"/></g><g transform="translate(758.47 206.85)"><path d="m0 0c-0.748 0.506-1.279 1.363-1.594 2.574-0.315 1.21-0.472 2.959-0.472 5.247v34.98h7.676v-34.98c0-2.244 0.276-3.905 0.827-4.983s1.654-1.616 3.307-1.616h0.59v-1.981h-7.086c-1.417 0-2.5 0.253-3.248 0.759" fill="#004ea2"/></g><g transform="translate(783.39 246.68)"><path d="m0 0h-4.193c-2.205 0-3.888-0.616-5.049-1.848s-1.741-3.256-1.741-6.072h-1.772v5.61c0 3.52 1.672 5.28 5.019 5.28h27.755v-2.97h-12.342v-40.59h-7.677z" fill="#004ea2"/></g><g transform="translate(821.12 223.52)"><path d="m0 0-10.452 17.557c-1.182 1.89-2.471 3.541-3.868 4.949-1.398 1.408-2.726 2.179-3.987 2.31v1.32h6.438c2.008 0 3.828-0.704 5.462-2.112 1.633-1.409 3.02-3.125 4.163-5.148l8.031-13.53 11.456 20.79h3.838l-13.404-24.354v-19.206h-7.677z" fill="#004ea2"/></g><path d="m458.6 253.79h1.786v-45.449h-1.786z" fill="#231f20" fill-rule="evenodd"/><path d="m861.93 253.79h1.785v-45.449h-1.785z" fill="#231f20" fill-rule="evenodd"/></g></g></svg>
